<?xml version="1.0" standalone="no"?>
<!DOCTYPE svg PUBLIC "-//W3C//DTD SVG 20010904//EN"
 "http://www.w3.org/TR/2001/REC-SVG-20010904/DTD/svg10.dtd">
<svg version="1.0" xmlns="http://www.w3.org/2000/svg"
 width="322.000000pt" height="322.000000pt" viewBox="0 0 322.000000 322.000000"
 preserveAspectRatio="xMidYMid meet">
<metadata>
Created by potrace 1.11, written by Peter Selinger 2001-2013
</metadata>
<g transform="translate(0.000000,322.000000) scale(0.100000,-0.100000)"
fill="#000000" stroke="none">
<path d="M1435 3212 c-51 -6 -49 -19 2 -14 26 2 120 4 208 5 161 0 252 -13
365 -50 25 -8 55 -17 68 -19 59 -11 230 -89 335 -151 76 -46 92 -63 61 -63
-38 0 -172 -77 -225 -130 -80 -79 -149 -210 -164 -310 -8 -56 -11 -60 -41 -60
-21 0 -24 4 -22 32 3 27 -1 32 -27 39 -36 10 -48 0 -49 -43 l-1 -33 -83 -1
-83 0 5 36 c7 51 23 90 41 96 9 4 22 22 31 42 13 32 13 41 -2 84 -18 56 -42
72 -87 62 -18 -4 -40 -7 -49 -5 -10 1 -18 -3 -18 -9 0 -7 6 -10 14 -7 7 3 19
0 25 -6 6 -6 11 -8 11 -3 0 4 7 1 15 -8 18 -18 19 -48 3 -64 -16 -16 -29 -15
-22 2 3 8 -3 16 -16 19 -11 3 -20 9 -19 14 4 21 -2 32 -20 38 -12 4 -18 12
-14 21 3 8 -1 14 -11 14 -10 0 -16 9 -16 23 -1 12 -7 33 -15 47 -8 14 -14 37
-15 51 0 38 -24 56 -46 35 -11 -12 -13 -20 -5 -29 12 -15 4 -58 -14 -72 -7 -6
-14 -19 -16 -29 -5 -21 -70 -46 -123 -46 -23 0 -87 -44 -85 -58 4 -28 -3 -62
-11 -57 -26 16 -6 -27 26 -54 22 -20 40 -48 49 -77 7 -25 21 -51 29 -57 13 -9
-5 -12 -81 -10 -133 2 -127 1 -115 16 17 21 -3 57 -29 52 -28 -6 -41 -24 -36
-52 2 -13 0 -23 -5 -23 -5 0 -6 -5 -3 -11 4 -6 -2 -5 -14 3 -12 7 -21 17 -22
23 0 5 -2 45 -4 87 -4 83 -11 118 -25 118 -5 0 -4 -15 1 -33 5 -19 9 -45 9
-58 0 -13 -1 -49 -1 -79 1 -67 -8 -123 -20 -145 -4 -5 -9 -21 -13 -35 -8 -35
-97 -74 -165 -74 -28 1 -54 4 -57 7 -13 13 9 27 42 27 19 0 34 4 34 10 0 5 -3
9 -7 9 -28 -5 -44 3 -41 19 3 14 15 17 81 17 77 0 78 0 72 -23 -3 -14 -2 -21
4 -18 5 4 13 21 16 39 4 17 11 37 16 42 14 19 20 159 9 230 -11 71 -40 144
-69 175 -9 9 -35 37 -58 62 -43 46 -123 92 -149 86 -11 -2 -8 -14 15 -50 17
-27 28 -48 25 -48 -4 0 -1 -6 5 -13 16 -21 63 -148 68 -187 7 -58 9 -60 43
-50 17 5 33 9 36 9 3 -1 8 1 10 4 2 2 -12 3 -31 2 -22 -2 -35 2 -35 9 0 15
116 20 125 5 4 -5 -1 -9 -9 -9 -9 0 -16 -5 -16 -10 0 -6 5 -9 12 -8 6 2 14 -5
16 -15 3 -16 -4 -17 -70 -15 l-73 3 -6 -55 c-6 -53 -11 -72 -29 -115 -16 -39
-100 -210 -109 -225 -18 -26 -91 -150 -91 -154 0 -2 31 -3 69 -3 78 1 88 12
14 16 -51 2 -58 5 -49 19 3 5 38 8 78 8 58 -1 73 -4 73 -16 0 -9 -7 -14 -17
-12 -10 2 -18 -2 -18 -8 0 -6 4 -9 8 -6 20 12 30 -10 17 -34 -8 -14 -14 -20
-15 -13 0 13 -25 12 -37 -2 -4 -4 -3 -6 2 -2 19 10 40 -10 28 -25 -8 -9 -35
-13 -90 -12 -110 2 -105 1 -87 22 12 14 28 18 75 16 32 -2 59 1 59 5 0 5 -23
7 -50 6 -35 -2 -53 2 -58 12 -7 11 -14 7 -34 -19 -14 -18 -35 -53 -48 -78 -12
-25 -26 -47 -29 -50 -7 -5 -71 -143 -71 -153 0 -3 -5 -18 -11 -34 -7 -15 -13
-35 -15 -43 -1 -8 -5 -24 -9 -36 -6 -20 -3 -21 51 -17 32 2 60 6 63 9 3 3 -5
5 -19 4 -55 -5 -70 0 -70 21 0 17 5 19 30 15 17 -2 30 0 30 5 0 6 -6 9 -13 8
-28 -3 -38 2 -35 19 3 15 16 17 111 17 79 0 107 -3 107 -12 0 -29 20 -10 26
25 4 20 6 37 5 37 -4 0 38 105 71 178 17 37 34 67 39 67 12 0 3 -33 -36 -125
-11 -25 -26 -67 -30 -85 -1 -3 -5 -18 -9 -35 -4 -16 -10 -37 -13 -45 -26 -67
-23 -239 6 -345 6 -22 10 -43 10 -48 0 -11 82 -166 95 -180 6 -7 23 -30 37
-52 37 -57 168 -174 236 -211 56 -30 83 -57 71 -70 -16 -15 -171 90 -253 171
-98 98 -187 248 -215 360 -1 6 -7 21 -12 35 -10 27 -21 89 -22 130 l-1 25
-128 -3 c-110 -3 -127 -2 -127 12 0 18 -8 17 133 19 63 1 109 -2 111 -8 3 -5
5 -1 5 10 1 19 -4 20 -115 17 -73 -2 -120 1 -129 8 -9 8 -14 5 -18 -12 -7 -24
-1 -219 7 -258 3 -14 9 -40 12 -58 7 -34 24 -45 24 -14 0 15 13 17 137 17 115
0 138 -2 141 -15 2 -13 -17 -15 -133 -15 -87 0 -139 -3 -145 -10 -12 -15 26
-125 71 -201 19 -32 36 -63 38 -69 6 -16 104 -140 113 -143 4 -2 8 -10 8 -18
0 -8 6 -14 13 -14 8 0 30 -17 49 -37 38 -42 114 -106 162 -139 54 -37 254
-119 299 -122 4 0 33 -6 65 -13 31 -6 89 -12 127 -13 39 0 69 -4 68 -8 -2 -5
-3 -13 -3 -19 0 -8 -27 -9 -87 -6 -180 11 -274 36 -443 120 -98 49 -232 169
-335 302 -55 70 -127 193 -124 211 0 4 -3 10 -8 13 -9 7 -29 56 -45 111 -6 19
-13 42 -16 50 -6 19 -10 41 -17 105 -9 85 -16 115 -23 115 -11 0 3 -131 22
-210 73 -304 342 -634 612 -751 71 -30 185 -69 214 -73 14 -2 48 -7 75 -10 28
-4 69 -9 93 -12 l42 -5 0 -50 c0 -47 18 -99 44 -124 23 -23 103 -65 124 -65
12 0 22 -4 22 -8 0 -7 -134 -8 -165 -2 -5 1 -19 2 -30 0 l-20 -1 20 -8 c29
-12 328 -8 332 4 3 10 -49 11 -99 2 -16 -3 -28 -1 -28 4 0 5 6 9 13 8 36 -6
121 55 152 109 16 29 22 53 20 91 -2 51 -2 51 29 53 29 1 44 3 56 8 3 1 16 4
30 6 92 17 199 61 338 139 37 21 139 105 177 147 131 140 281 411 312 558 13
67 6 240 -11 257 -4 4 -4 -45 -1 -108 5 -108 1 -136 -29 -234 -20 -65 -94
-211 -131 -259 -14 -18 -25 -37 -25 -41 0 -14 -74 -107 -136 -171 -33 -33 -90
-80 -129 -104 -38 -25 -72 -47 -75 -51 -6 -7 -137 -70 -154 -73 -6 -2 -31 -8
-56 -15 -25 -7 -57 -15 -72 -17 -30 -4 -65 -10 -114 -19 -21 -4 -35 -1 -43 9
-10 12 -5 16 36 21 26 3 71 11 98 16 28 6 61 13 75 15 13 3 38 12 55 20 17 8
41 16 52 18 12 3 31 14 42 25 12 12 26 21 32 21 6 0 42 20 79 45 145 96 339
338 413 515 16 36 28 70 29 75 0 6 5 21 10 35 14 36 19 238 8 295 -6 28 -12
64 -14 80 -7 61 -71 236 -102 275 -6 8 -30 51 -53 94 -24 44 -51 91 -60 105
-87 127 -183 306 -216 400 -15 45 -10 149 10 221 9 30 19 66 22 80 6 25 108
176 127 188 6 3 0 -9 -13 -26 -12 -18 -19 -32 -14 -32 4 0 3 -4 -3 -8 -17 -10
-79 -148 -94 -207 -17 -67 -19 -161 -4 -211 16 -55 106 -237 125 -254 3 -3 22
-34 42 -70 20 -36 48 -83 62 -105 26 -41 132 -254 158 -315 18 -41 37 -109 42
-150 5 -45 16 -71 25 -65 5 3 4 20 -1 38 -6 17 -12 44 -14 59 -16 107 -123
330 -282 583 -30 47 -54 97 -49 102 2 3 21 -13 40 -35 42 -46 93 -74 122 -66
29 8 84 -52 155 -168 94 -152 137 -268 99 -268 -22 0 -13 -43 26 -120 37 -75
57 -136 79 -245 8 -36 8 -39 0 -93 -4 -31 -3 -42 6 -40 7 2 15 -6 17 -17 4
-17 2 -18 -12 -6 -14 11 -16 11 -16 -3 0 -16 40 -24 40 -8 4 61 9 104 15 132
l8 35 9 -30 c5 -16 6 -51 2 -77 -5 -38 -3 -48 9 -48 17 0 40 24 31 33 -3 3 0
16 7 29 19 34 18 134 -1 203 -10 33 -36 98 -60 144 -36 73 -40 85 -26 93 22
12 20 42 -4 86 -11 20 -29 57 -40 82 -73 169 -199 341 -314 427 -25 19 -32 21
-45 9 -23 -19 -49 -27 -56 -15 -4 5 -21 15 -38 23 -18 8 -52 31 -76 52 l-44
38 22 17 c33 27 38 72 11 99 -13 13 -29 20 -42 17 -26 -7 -33 15 -19 66 7 23
14 51 15 62 2 11 5 22 6 25 2 3 4 10 5 15 1 10 12 32 61 121 43 80 48 88 69
115 l20 27 45 -31 c58 -40 300 -282 300 -301 0 -2 19 -32 43 -66 23 -34 47
-69 52 -78 6 -10 12 -19 15 -22 11 -11 71 -140 109 -232 47 -116 93 -301 103
-415 1 -7 4 -10 8 -8 4 3 6 15 4 27 -11 83 -17 118 -26 153 -6 22 -12 51 -14
64 -6 31 -55 173 -64 186 -4 6 -13 28 -20 49 -27 85 -148 289 -235 396 -48 60
-166 176 -230 228 -38 31 -72 59 -75 62 -15 16 -188 114 -264 149 -80 38 -214
88 -258 96 -10 2 -22 6 -27 9 -5 3 -25 8 -45 12 -21 3 -59 11 -85 18 -45 11
-352 17 -426 8z m1051 -321 c-3 -5 -22 -12 -41 -15 -113 -22 -244 -172 -299
-341 -8 -27 -16 -59 -16 -70 -2 -90 -2 -118 4 -175 5 -58 4 -63 -9 -46 -17 23
-26 100 -21 191 5 93 9 106 55 201 53 106 123 178 221 227 71 35 118 47 106
28z m-888 -36 c-3 -3 -9 2 -12 12 -6 14 -5 15 5 6 7 -7 10 -15 7 -18z m-7 -38
c-10 -9 -11 -8 -5 6 3 10 9 15 12 12 3 -3 0 -11 -7 -18z m-721 3 c0 -5 -8 -10
-17 -10 -15 0 -16 2 -3 10 19 12 20 12 20 0z m1500 -30 c-14 -4 -29 -4 -35 -1
-5 3 1 8 15 11 14 4 29 4 35 1 5 -3 -1 -8 -15 -11z m-1450 -2 c0 -5 -16 -8
-35 -8 -19 0 -35 4 -35 9 0 6 16 9 35 8 19 -1 35 -5 35 -9z m689 -1 c13 -16 5
-27 -20 -27 -24 0 -35 20 -18 31 19 12 25 11 38 -4z m761 -23 c0 -2 -19 -4
-42 -3 -31 0 -37 3 -24 8 18 7 66 3 66 -5z m-1427 -11 c-7 -2 -21 -2 -30 0
-10 3 -4 5 12 5 17 0 24 -2 18 -5z m1412 -13 c3 -5 -1 -10 -10 -10 -9 0 -13 5
-10 10 3 6 8 10 10 10 2 0 7 -4 10 -10z m-1385 -9 c11 -1 12 -3 3 -9 -15 -10
-95 -3 -88 8 4 6 21 6 85 1z m600 1 c0 -4 -16 -14 -35 -21 -20 -7 -43 -23 -51
-37 -15 -22 -15 -26 0 -49 20 -30 20 -36 2 -61 -14 -18 -17 -17 -60 30 -58 64
-53 78 39 112 11 4 29 9 40 11 11 2 24 8 29 13 12 12 36 13 36 2z m743 1 c-7
-2 -21 -2 -30 0 -10 3 -4 5 12 5 17 0 24 -2 18 -5z m-693 -49 c0 -6 -11 -14
-25 -16 -14 -3 -25 -4 -25 -3 0 1 5 17 12 35 10 31 12 32 25 15 7 -11 13 -24
13 -31z m715 24 c3 -3 -14 -6 -39 -5 -25 0 -43 3 -41 6 4 8 72 7 80 -1z
m-1335 -14 c0 -2 -26 -4 -57 -3 -39 1 -50 3 -34 8 24 6 91 3 91 -5z m830 -22
c0 -14 -11 -39 -24 -56 -13 -18 -26 -40 -28 -51 -5 -19 -5 -19 -13 -2 -5 12
-1 25 11 40 32 37 43 63 33 78 -13 21 -11 29 6 23 8 -4 15 -18 15 -32z m484 6
c-3 -4 -17 -8 -32 -8 -20 0 -23 -3 -13 -9 8 -5 20 -7 27 -4 6 2 15 0 19 -6 7
-12 7 -13 -57 -15 -51 -2 -63 9 -25 24 12 5 16 9 10 9 -7 1 -13 5 -13 9 0 5
20 9 44 8 25 0 42 -4 40 -8z m-1301 -7 c9 -1 17 -5 17 -10 0 -4 -24 -7 -52 -6
-76 3 -80 4 -75 13 3 4 25 6 49 5 23 -1 51 -2 61 -2z m20 -30 c4 -1 7 -6 7
-11 0 -15 -122 -8 -127 6 -3 9 47 11 120 5z m572 -1 c-3 -6 3 -14 15 -18 l20
-8 -22 -30 -23 -31 -22 28 c-24 28 -28 40 -15 38 20 -3 32 2 32 16 0 8 5 15
11 15 5 0 7 -5 4 -10z m142 -49 c-1 -24 -44 -25 -57 -2 -11 22 1 30 36 23 14
-2 22 -11 21 -21z m548 18 c4 -5 -18 -9 -50 -9 -31 0 -54 4 -51 8 7 11 95 12
101 1z m-1260 -8 c46 -3 -7 -16 -57 -15 -65 2 -66 3 -51 12 11 7 26 7 108 3z
m804 -14 c-6 -13 -19 -28 -29 -34 -15 -10 -17 -9 -13 10 5 22 29 47 45 47 4 0
3 -10 -3 -23z m-447 -6 c4 -1 5 -11 3 -23 -3 -12 1 -26 8 -30 6 -4 8 -8 2 -8
-8 0 -75 56 -75 63 0 2 37 1 62 -2z m898 -6 c0 -6 -27 -11 -60 -12 -43 -2 -58
1 -54 10 5 15 114 17 114 2z m-860 -15 c0 -5 -4 -10 -10 -10 -5 0 -10 5 -10
10 0 6 5 10 10 10 6 0 10 -4 10 -10z m160 -25 c8 1 25 5 38 9 16 5 29 3 41 -8
22 -20 57 -21 65 -1 3 8 10 15 17 15 6 0 8 -7 5 -15 -3 -9 1 -18 9 -21 8 -4
12 -11 9 -16 -4 -6 -10 -5 -15 3 -7 12 -11 11 -26 -3 -16 -17 -16 -19 0 -35
16 -16 19 -16 28 -3 9 13 10 13 6 0 -2 -8 -9 -15 -15 -14 -7 1 -24 2 -38 3
-23 1 -25 4 -20 26 8 32 -18 45 -42 22 -14 -15 -14 -17 1 -23 29 -11 19 -20
-20 -18 -21 1 -40 2 -42 3 -2 1 4 10 14 21 17 18 17 22 4 36 -14 13 -18 13
-38 -3 -21 -17 -22 -20 -7 -32 25 -21 19 -26 -27 -26 -23 0 -58 -3 -77 -7 -22
-4 -39 -3 -45 4 -7 8 -6 9 3 4 13 -7 42 15 42 32 0 15 -26 22 -39 9 -6 -6 -11
-8 -11 -3 0 15 26 31 50 30 29 0 70 16 70 28 0 5 10 3 23 -5 12 -7 29 -12 37
-12z m686 4 c8 -6 12 -15 9 -19 -5 -9 -114 -5 -123 5 -20 20 91 33 114 14z
m-2 -49 c5 -5 8 -12 5 -14 -4 -4 -77 -9 -111 -7 -20 1 -24 27 -5 34 19 6 101
-3 111 -13z m-674 6 c0 -11 -19 -15 -25 -6 -3 5 1 10 9 10 9 0 16 -2 16 -4z
m-540 -23 c0 -8 -6 -13 -12 -12 -28 3 -58 -1 -58 -9 0 -5 16 -8 35 -7 19 1 35
-2 35 -6 0 -5 -10 -9 -22 -10 -114 -5 -106 -7 -105 26 l1 30 63 1 c47 0 63 -3
63 -13z m690 7 c0 -5 -5 -10 -11 -10 -5 0 -7 5 -4 10 3 6 8 10 11 10 2 0 4 -4
4 -10z m244 -27 c11 -28 -10 -35 -22 -8 -9 20 -9 25 2 25 8 0 17 -8 20 -17z
m390 1 c-6 -3 -9 -15 -7 -29 4 -20 2 -23 -16 -18 -11 3 -19 8 -17 12 1 3 6 14
9 24 4 9 14 17 24 16 10 0 13 -3 7 -5z m-1181 -29 c-3 -8 -9 -15 -14 -15 -10
0 -12 24 -3 33 11 11 24 -3 17 -18z m1073 18 c-11 -11 -126 -12 -126 -2 0 5
30 9 67 9 36 0 63 -3 59 -7z m-1 -43 c0 -8 -7 -13 -15 -12 -8 2 -35 4 -60 4
-50 1 -63 5 -55 18 3 4 33 7 67 6 48 -1 63 -6 63 -16z m-1225 6 c0 -2 3 -12 7
-22 4 -12 3 -15 -6 -10 -7 5 -40 10 -74 11 -78 4 -75 3 -57 15 14 9 130 14
130 6z m564 -25 c9 -14 -5 -41 -21 -41 -8 0 -27 -8 -41 -18 -51 -36 -55 -37
-42 -12 17 32 2 38 -23 8 -20 -24 -85 -54 -94 -44 -8 8 17 46 30 46 7 0 43 16
81 35 71 35 100 42 110 26z m156 -13 c0 -5 0 -12 0 -18 0 -5 -12 -13 -27 -16
-55 -14 -123 -58 -123 -80 0 -20 49 0 79 32 12 14 25 24 27 21 2 -2 -19 -27
-46 -55 l-49 -51 4 -76 c3 -47 12 -89 24 -113 37 -72 123 -138 160 -124 20 7
69 62 77 85 3 9 10 17 16 17 6 0 9 3 5 6 -3 4 0 19 9 35 8 16 12 29 8 29 -4 0
-2 6 4 13 5 6 12 35 15 62 5 40 13 56 42 83 30 28 38 31 55 20 10 -7 23 -9 27
-5 11 11 -17 27 -49 27 -15 0 -30 5 -34 12 -4 6 -3 8 2 5 5 -3 10 3 10 14 0
10 -4 19 -8 19 -4 0 -4 10 1 23 5 12 9 27 10 32 0 6 16 10 33 10 30 0 33 -3
40 -40 4 -22 8 -57 9 -77 1 -24 6 -38 14 -38 18 0 95 -82 110 -117 30 -65 33
-88 18 -123 -27 -65 -55 -66 -70 -2 -9 37 -9 49 1 57 22 17 37 53 26 60 -5 3
-10 -1 -10 -9 0 -8 -7 -22 -16 -30 -17 -18 -64 -22 -64 -6 0 6 4 10 9 10 14 0
30 55 20 71 -6 10 -9 8 -9 -10 0 -14 -8 -33 -17 -43 -16 -18 -18 -18 -50 18
-35 40 -41 65 -20 83 10 8 17 7 25 -1 17 -17 27 -2 12 17 -30 36 -61 7 -66
-62 -7 -93 -43 -162 -95 -184 -16 -6 -29 -17 -29 -24 0 -21 -56 -75 -79 -75
-11 0 -24 8 -30 17 -5 10 -12 15 -16 12 -3 -4 0 -13 7 -20 8 -8 15 -44 17 -87
1 -40 4 -84 6 -97 1 -14 1 -25 -2 -25 -2 0 -21 12 -43 26 -22 15 -43 24 -46
21 -3 -3 8 -13 25 -21 39 -21 68 -51 92 -98 20 -39 12 -50 -15 -23 -8 8 -20
15 -27 15 -6 0 5 -13 26 -30 21 -16 42 -30 46 -30 5 0 9 -5 9 -11 0 -8 -4 -8
-14 0 -9 8 -16 8 -20 2 -4 -5 3 -12 14 -16 15 -5 19 -12 15 -27 -5 -14 -1 -21
14 -25 12 -3 21 -11 21 -19 0 -16 -44 -2 -72 23 -11 10 -18 12 -18 4 0 -14 59
-51 82 -51 9 0 20 -4 23 -10 11 -18 -39 -11 -70 10 -16 11 -39 25 -50 32 -10
7 -26 19 -33 26 -8 7 -16 11 -19 8 -7 -6 28 -39 61 -56 15 -8 34 -27 42 -42
13 -26 13 -28 -4 -28 -29 0 -81 29 -93 52 -6 11 -13 17 -16 14 -3 -2 5 -19 17
-35 20 -29 20 -31 2 -31 -22 0 -149 166 -160 210 -19 76 -13 125 18 135 11 3
20 11 20 17 0 16 -43 -16 -56 -41 -7 -13 -8 -39 -3 -68 4 -27 5 -50 3 -52 -1
-2 -16 6 -32 18 -34 24 -82 44 -82 33 0 -4 20 -16 43 -26 23 -11 47 -24 52
-28 6 -5 22 -18 38 -29 15 -11 25 -24 22 -29 -6 -10 -45 -1 -45 11 0 12 -72
59 -82 53 -5 -3 -6 -10 -2 -15 3 -5 9 -7 13 -4 5 2 26 -11 49 -30 22 -19 51
-35 64 -35 13 0 31 -11 41 -25 22 -31 8 -32 -41 -2 -54 33 -92 48 -92 37 0 -6
5 -10 12 -10 7 0 35 -14 64 -32 35 -21 50 -36 47 -46 -5 -12 -2 -12 14 -4 17
9 24 7 41 -11 21 -22 21 -23 3 -39 -11 -9 -22 -14 -24 -11 -3 2 -13 6 -24 8
-10 1 -17 8 -16 14 3 12 -44 27 -54 17 -3 -3 5 -15 18 -27 13 -11 18 -17 10
-13 -20 10 -63 14 -83 8 -20 -6 -24 -22 -5 -20 6 0 13 -3 14 -8 2 -6 -18 -9
-45 -8 -63 2 -96 -13 -118 -53 -20 -37 -42 -51 -57 -36 -6 6 6 24 32 50 23 23
37 41 31 41 -25 0 -6 21 42 47 28 15 53 33 55 38 2 6 -17 33 -42 60 -24 28
-44 53 -45 56 0 3 -8 15 -18 27 -11 12 -19 39 -20 61 -2 32 3 44 24 60 29 23
68 27 108 11 43 -16 29 -2 -20 21 -42 20 -94 80 -94 109 0 5 -4 10 -10 10 -16
0 -12 -20 10 -47 15 -20 17 -29 9 -39 -17 -20 -36 -17 -53 8 -21 29 -21 68 -1
68 13 0 13 4 -2 27 -17 26 -17 26 4 21 29 -8 63 18 63 48 0 30 -18 32 -22 2
-7 -48 -40 -33 -128 57 -46 47 -89 93 -94 102 -5 10 -9 38 -8 63 2 50 -12 74
-50 89 -20 8 -28 7 -32 -5 -4 -9 1 -14 16 -14 28 0 50 -29 34 -46 -33 -33 -69
-24 -78 21 -3 16 -8 12 -26 -22 -23 -45 -22 -87 3 -96 7 -3 17 -19 23 -35 8
-25 7 -34 -8 -50 -11 -11 -17 -28 -14 -40 10 -35 -32 -35 -61 0 -14 17 -28 28
-31 26 -8 -8 46 -68 61 -68 20 0 27 -15 19 -44 -7 -28 -42 -42 -51 -20 -3 8
-9 11 -14 8 -5 -3 5 -30 21 -60 39 -74 47 -117 26 -149 -22 -33 -41 -32 -42 3
-2 28 -6 62 -24 217 -8 65 -8 110 1 165 10 69 34 148 49 160 3 3 13 17 23 32
38 60 118 72 175 27 14 -10 21 -19 17 -19 -4 0 -2 -6 4 -14 7 -8 9 -35 7 -66
-5 -51 3 -79 28 -107 48 -52 97 -100 115 -110 18 -12 22 -10 37 19 9 17 18 46
19 64 2 19 6 38 10 44 3 5 -1 10 -9 10 -17 0 -17 23 1 54 6 11 7 32 3 52 -6
24 -3 41 11 64 11 17 19 41 19 55 0 19 7 26 38 34 22 7 38 7 40 1 2 -5 19 0
38 11 19 10 43 19 53 19 11 0 31 14 45 31 14 17 31 29 38 27 7 -3 27 1 46 7
37 13 72 14 72 3z m206 4 c-3 -4 -1 -24 3 -44 7 -29 3 -49 -15 -94 -23 -56
-28 -77 -39 -140 -11 -71 -81 -184 -113 -184 -10 0 -28 7 -40 16 -18 12 -22
25 -22 65 0 32 -4 49 -12 50 -10 0 -10 2 -1 6 8 2 11 14 8 26 -12 48 -12 87
-1 87 7 0 6 3 -2 8 -10 7 -10 15 -2 36 7 19 7 25 -1 20 -8 -5 -8 -1 0 13 6 11
8 23 4 26 -11 12 18 35 37 30 15 -4 20 2 25 41 l7 46 85 0 c46 0 82 -4 79 -8z
m306 -7 c15 -20 7 -23 -62 -21 -70 2 -87 7 -77 24 8 12 130 9 139 -3z m-1226
-6 c8 -14 -30 -24 -88 -23 -70 2 -68 2 -62 18 6 16 140 20 150 5z m127 -6 c3
-10 5 -36 6 -58 1 -22 3 -61 5 -86 2 -26 0 -53 -5 -60 -7 -11 -9 -11 -9 2 0 9
-14 30 -30 48 -28 28 -41 36 -62 32 -5 0 -8 10 -8 22 0 13 3 27 8 31 4 4 7 11
7 14 2 33 18 61 38 65 41 8 46 7 50 -10z m204 9 c14 -9 6 -22 -27 -44 -29 -18
-35 -58 -9 -58 24 0 22 -57 -3 -92 -14 -21 -17 -32 -10 -41 7 -8 7 -18 2 -27
-5 -8 -7 -24 -4 -35 3 -12 1 -33 -5 -48 -6 -16 -7 -29 -1 -32 6 -4 5 -14 -3
-26 -9 -16 -9 -21 0 -27 10 -7 10 -12 0 -26 -13 -17 -15 -17 -38 5 -48 47 -56
69 -57 164 0 50 -1 92 -2 95 -4 10 -6 185 -3 193 5 9 144 9 160 -1z m73 -2
c-20 -13 -33 -13 -25 0 3 6 14 10 23 10 15 0 15 -2 2 -10z m813 -33 c15 -1 25
-6 24 -12 -1 -6 -35 -10 -77 -10 -45 0 -74 4 -72 10 1 6 16 10 32 11 17 1 33
4 36 7 3 3 12 3 18 1 7 -3 25 -6 39 -7z m-1233 -16 c0 -20 -141 -24 -148 -3
-3 9 17 12 72 12 42 0 76 -4 76 -9z m1456 -76 c41 -19 52 -30 51 -47 0 -13 3
-31 7 -40 13 -29 -17 -22 -44 10 -13 15 -43 48 -67 74 -44 49 -60 85 -21 48
12 -11 46 -32 74 -45z m-170 42 c15 -15 -10 -21 -86 -22 -55 -1 -81 3 -84 11
-3 7 5 14 17 16 38 6 146 2 153 -5z m-621 -167 c2 -128 -6 -150 -30 -80 -1 3
-4 12 -8 20 -13 33 -17 108 -8 134 12 29 33 56 40 50 3 -2 5 -58 6 -124z m648
109 c5 -18 -2 -19 -89 -19 -85 0 -94 2 -94 19 0 17 9 19 89 19 79 0 90 -2 94
-19z m353 -66 c66 -64 108 -123 89 -123 -9 0 -23 -6 -30 -14 -12 -12 -11 -17
12 -31 25 -17 27 -17 40 1 12 16 15 17 23 4 7 -11 3 -17 -18 -24 -36 -12 -35
-11 -22 -35 13 -26 33 -28 25 -2 -7 22 24 39 37 19 11 -19 5 -31 -23 -45 l-24
-13 28 0 c15 0 27 6 27 13 1 6 10 1 20 -12 22 -25 26 -41 10 -41 -5 0 -10 7
-10 15 0 16 -9 19 -34 9 -20 -8 -21 -24 -1 -24 8 0 14 -3 14 -7 -3 -20 3 -23
22 -12 15 8 24 8 32 0 8 -8 3 -14 -20 -23 -28 -11 -30 -14 -20 -37 15 -35 14
-34 27 -26 7 4 8 11 1 18 -6 9 -3 12 13 13 17 1 27 -9 45 -47 27 -57 24 -73
-19 -87 -30 -11 -32 -10 -46 23 -8 19 -14 39 -14 45 0 6 -4 18 -9 28 -5 9 -16
35 -26 57 -38 89 -140 240 -209 307 -39 38 -64 66 -56 63 9 -3 24 1 35 9 20
14 20 14 0 37 l-20 23 31 -21 c16 -12 48 -39 70 -60z m-120 41 c-11 -7 -22
-11 -25 -8 -3 3 3 12 13 20 11 7 22 11 25 8 3 -3 -3 -12 -13 -20z m-217 -18
c30 -19 5 -27 -76 -24 -69 2 -88 6 -91 18 -2 12 11 15 76 14 44 -1 84 -4 91
-8z m-1419 -5 c0 -14 -27 -21 -81 -21 -46 0 -59 7 -42 23 10 10 123 8 123 -2z
m-40 -47 c3 -5 -23 -10 -57 -12 -51 -2 -62 0 -57 11 6 17 105 17 114 1z m1497
-5 c13 -12 13 -14 -4 -20 -14 -6 -13 -8 10 -8 22 -1 27 -6 27 -25 0 -13 7 -26
15 -30 8 -3 12 -12 9 -19 -3 -8 2 -17 10 -20 9 -4 16 -11 16 -17 0 -13 -206
-14 -214 -1 -9 15 17 19 93 17 40 -1 75 2 77 6 5 9 -3 9 -108 9 -64 1 -94 13
-70 28 6 4 45 6 86 5 42 -1 76 2 76 7 0 5 -41 9 -91 9 -83 0 -91 2 -87 18 3
10 -2 24 -11 32 -14 13 -12 15 14 20 49 9 135 2 152 -11z m-347 -60 c0 -27
-44 -109 -58 -109 -9 0 -13 -3 -9 -6 10 -10 -22 -64 -38 -64 -21 0 -14 57 11
95 18 28 19 28 22 7 2 -12 7 -22 12 -22 9 0 8 12 -4 48 -4 13 -3 28 3 36 6 7
8 16 4 19 -3 4 -1 7 5 7 6 0 14 -9 17 -20 3 -11 11 -20 16 -20 5 0 3 13 -6 30
-21 41 -19 58 5 32 11 -12 20 -27 20 -33z m-1166 32 c5 -1 3 -7 -3 -15 -7 -9
-28 -13 -59 -11 -67 4 -69 4 -51 18 13 10 51 12 113 8z m125 0 c9 -6 12 -19 8
-40 -5 -24 -2 -33 14 -41 11 -6 17 -16 14 -23 -8 -15 16 14 32 40 11 17 12 17
26 -2 13 -17 13 -22 1 -39 -8 -11 -14 -30 -14 -41 -1 -19 -1 -19 -19 3 -25 29
-37 28 -18 -2 12 -18 14 -32 7 -56 -5 -18 -8 -37 -7 -43 3 -14 -32 -22 -45 -9
-18 18 -20 70 -3 95 12 18 13 31 6 50 -5 14 -7 28 -3 31 3 4 -4 9 -16 13 -16
4 -22 13 -22 32 0 39 12 49 39 32z m81 -6 c0 -21 -41 -76 -52 -69 -15 9 -8 44
12 64 24 24 40 26 40 5z m98 -30 c1 -14 -3 -25 -8 -25 -11 0 -14 33 -3 43 9 9
8 10 11 -18z m-320 -22 c-3 -15 -16 -19 -71 -21 -52 -2 -67 0 -67 11 0 23 11
27 77 27 56 0 64 -2 61 -17z m1272 -47 c5 -16 10 -39 10 -52 0 -12 6 -25 13
-27 7 -3 5 -6 -5 -6 -10 -1 -18 -8 -18 -16 0 -14 -37 -55 -50 -55 -3 0 -5 21
-4 46 1 26 -2 61 -8 78 -15 50 -19 76 -13 86 10 15 64 -24 75 -54z m-73 -66
c2 -19 6 -36 8 -38 2 -2 -1 -17 -6 -34 -5 -18 -5 -36 0 -42 5 -6 7 -20 5 -31
-2 -11 -5 -34 -7 -52 -3 -32 -48 -100 -73 -110 -16 -6 -56 25 -49 38 3 4 8 27
11 51 7 51 7 50 27 42 14 -5 13 -12 -8 -55 -14 -27 -22 -49 -17 -49 9 0 52 85
52 104 0 7 11 22 23 35 25 23 25 25 2 150 -3 18 -3 43 1 54 7 21 7 21 17 -3 5
-14 11 -41 14 -60z m-925 20 c-6 -11 -12 -30 -11 -42 1 -18 3 -16 10 9 11 40
25 49 37 26 5 -11 4 -33 -3 -58 -10 -31 -14 -36 -20 -22 -4 9 -13 16 -21 15
-7 -2 -20 6 -28 17 -9 12 -15 15 -16 7 0 -7 8 -22 19 -33 11 -12 16 -29 13
-44 -2 -15 0 -25 7 -25 6 0 11 11 11 25 0 18 4 23 15 19 8 -4 15 -11 15 -18 0
-6 14 -17 31 -23 17 -7 28 -16 25 -22 -4 -5 -2 -12 4 -16 5 -3 10 -1 10 4 0
23 17 9 28 -22 15 -43 15 -47 -3 -47 -8 0 -17 11 -21 25 -3 14 -10 25 -15 25
-5 0 -4 -11 1 -25 13 -34 -13 -34 -35 -1 -11 16 -22 22 -35 19 -14 -4 -21 1
-25 19 -5 20 -11 24 -31 20 -26 -5 -33 6 -38 54 -4 33 12 84 25 84 5 0 9 9 9
21 0 11 5 30 11 41 10 19 12 19 27 4 14 -13 14 -20 4 -36z m1110 -20 c2 -20
-1 -24 -16 -22 -14 3 -17 -1 -12 -13 6 -15 -18 -80 -33 -89 -3 -2 -7 17 -9 42
-2 37 3 56 25 89 28 44 38 42 45 -7z m259 19 c11 -19 2 -28 -26 -24 -14 1 -25
-1 -25 -6 0 -4 13 -7 30 -7 16 1 37 -5 46 -13 15 -12 14 -14 -3 -20 -16 -6
-15 -8 9 -17 45 -18 39 -28 -19 -30 -70 -1 -83 -12 -17 -13 75 -2 79 -3 79
-19 0 -11 -20 -14 -105 -14 -89 0 -105 3 -108 16 -2 11 5 18 20 21 21 4 21 4
-3 6 -15 0 -32 8 -39 16 -11 13 -8 15 19 15 17 0 31 5 31 11 0 7 -10 9 -25 7
-27 -6 -62 13 -52 28 3 5 32 9 65 9 33 0 59 2 56 6 -2 4 -31 5 -64 4 -43 -2
-66 2 -76 12 -8 8 -12 18 -10 22 9 14 208 4 217 -10z m-593 -36 c-2 -9 9 -29
24 -44 23 -23 27 -33 22 -61 -4 -18 -12 -42 -19 -53 -7 -12 -9 -28 -4 -41 9
-26 -23 -84 -47 -84 -15 0 -16 2 -2 18 8 9 20 32 26 50 11 31 10 33 -10 26
-19 -6 -20 -3 -14 22 4 16 9 44 12 63 2 19 9 40 16 48 6 7 7 17 3 21 -4 4 -10
2 -12 -4 -2 -6 -10 -20 -19 -30 -14 -18 -15 -16 -11 21 4 44 28 97 34 78 3 -7
3 -20 1 -30z m107 5 c3 -18 7 -45 9 -59 5 -33 -22 -89 -43 -89 -13 0 -16 11
-16 58 1 57 20 122 36 122 4 0 11 -15 14 -32z m298 -56 c48 -100 87 -191 93
-219 1 -6 7 -27 12 -45 6 -18 14 -60 17 -93 6 -53 15 -88 15 -57 0 9 33 12
110 12 61 0 110 4 110 9 0 4 -39 8 -87 8 -125 1 -130 1 -130 18 0 11 22 14
124 14 113 -1 158 -10 119 -25 -21 -8 -21 -24 0 -24 9 0 14 -7 12 -16 -3 -14
-22 -17 -135 -18 l-131 -1 1 -62 c1 -52 4 -63 19 -63 9 0 20 5 23 10 3 6 -1
10 -9 10 -9 0 -16 8 -16 18 0 15 13 17 130 18 115 1 130 -1 130 -16 0 -11 -7
-16 -22 -15 -26 2 -48 -4 -48 -14 0 -3 16 -6 35 -5 28 2 35 -2 35 -17 0 -14
-8 -19 -27 -20 l-28 -2 28 -4 c18 -3 27 -10 27 -23 0 -17 -11 -18 -135 -19
-122 0 -154 6 -125 24 5 3 50 7 100 9 49 1 93 6 97 10 4 4 -21 7 -57 6 -123
-3 -152 -1 -144 12 4 6 3 8 -3 5 -6 -4 -13 -30 -17 -58 -9 -64 -39 -147 -82
-219 -35 -60 -131 -166 -176 -195 -16 -9 -28 -20 -28 -24 0 -10 326 -8 336 2
4 4 -62 7 -146 7 -145 0 -153 1 -137 17 15 15 40 20 120 22 15 1 27 5 27 10 0
5 -19 8 -42 7 -23 0 -43 4 -45 11 -5 13 18 21 69 25 20 1 35 5 33 8 -2 4 -18
5 -35 2 -16 -2 -30 -1 -30 4 0 18 35 44 62 44 15 0 28 4 28 9 0 6 -9 8 -20 6
-23 -4 -24 -1 -10 25 7 12 19 17 37 15 15 -1 48 1 73 5 44 7 43 8 -22 9 -38 0
-68 3 -68 6 0 3 8 14 18 24 15 15 34 18 144 17 69 -1 129 -4 132 -7 9 -9 -5
-40 -14 -34 -5 3 -11 1 -15 -5 -3 -5 -2 -10 3 -10 6 0 8 -9 5 -20 -6 -22 -4
-22 -142 -24 -55 0 -102 -4 -105 -7 -4 -3 46 -5 109 -4 63 1 115 -1 115 -4 -2
-23 -32 -42 -69 -43 -23 0 -41 -3 -41 -7 0 -4 15 -6 33 -6 44 1 49 -3 29 -24
-12 -13 -30 -18 -59 -16 -23 1 -40 -2 -37 -6 2 -4 17 -6 32 -5 15 2 31 1 35
-1 12 -7 -23 -43 -42 -43 -13 0 -13 -2 -3 -9 12 -7 12 -12 1 -30 -13 -20 -26
-25 -59 -22 -11 1 -11 -2 3 -13 18 -14 18 -15 -1 -34 -16 -16 -31 -19 -76 -17
-68 2 -84 -9 -18 -13 54 -3 59 -6 42 -27 -19 -22 -525 -23 -534 0 -7 19 -14
18 179 21 193 3 185 2 185 12 0 4 -61 7 -135 7 -75 -1 -138 1 -140 5 -2 3 8 7
21 8 14 1 38 9 54 17 21 11 61 15 144 15 63 0 117 4 120 9 3 5 -39 8 -94 7
-55 0 -100 1 -100 2 0 2 10 13 23 24 15 13 3 10 -35 -11 -72 -38 -175 -71
-211 -67 -15 2 -30 0 -32 -4 -3 -5 -13 -7 -23 -5 -9 1 -24 -1 -33 -6 -11 -5
-28 4 -58 32 -35 31 -41 42 -32 53 21 25 -9 30 -35 5 -17 -16 -24 -18 -25 -8
-2 42 -7 61 -17 71 -9 9 -12 7 -13 -7 -2 -29 -4 -37 -12 -63 -7 -20 -10 -20
-23 -7 -25 24 -65 15 -44 -10 6 -7 1 -23 -16 -48 -24 -36 -47 -47 -59 -27 -3
6 -22 10 -42 10 -35 0 -35 -1 -19 -19 16 -18 16 -20 -6 -36 l-23 -17 23 5 c26
6 27 4 8 -26 -8 -12 -17 -35 -19 -52 l-4 -30 -207 0 c-191 0 -210 1 -239 20
l-32 20 40 6 40 6 -47 2 c-34 1 -54 8 -75 26 l-28 24 30 2 c17 1 39 1 50 0
l20 -1 -20 9 c-11 5 -38 10 -60 11 -43 1 -81 22 -70 39 3 6 11 8 17 5 6 -4 8
-2 4 4 -3 6 -15 9 -25 7 -11 -2 -29 7 -42 21 l-22 24 212 0 c193 0 215 -2 252
-20 l39 -21 6 29 c5 24 10 29 28 25 20 -4 21 -4 2 11 -13 11 -20 31 -22 61 -2
25 -2 45 0 45 19 0 117 -23 138 -33 36 -15 41 -31 20 -57 -13 -17 -29 -22 -65
-22 -26 0 -47 -4 -47 -9 0 -5 28 -9 63 -9 54 0 67 4 86 24 20 21 21 27 9 46
-15 25 -117 79 -135 73 -28 -10 -11 16 19 28 17 7 26 15 20 17 -6 2 -34 -8
-62 -22 l-50 -25 0 39 c0 45 2 46 76 26 59 -16 174 -20 174 -7 0 5 -6 12 -12
14 -10 4 -10 8 1 15 19 14 62 5 77 -15 11 -16 14 -16 36 -1 28 19 88 31 88 18
0 -5 9 -12 20 -15 11 -3 20 -11 20 -16 0 -6 -4 -8 -8 -5 -5 3 -23 -4 -42 -15
l-33 -20 -49 21 c-28 12 -52 19 -56 16 -3 -3 -12 0 -20 7 -12 10 -14 9 -11 -2
3 -8 26 -19 51 -26 26 -6 54 -17 62 -24 12 -10 26 -7 78 18 88 42 148 47 221
19 31 -12 57 -29 57 -36 0 -7 -6 -12 -12 -11 -33 6 -117 -22 -150 -50 -44 -35
-2 -96 67 -100 69 -4 198 54 300 135 49 38 145 135 145 145 0 4 6 14 13 21 15
15 80 138 73 138 -3 0 -1 14 4 30 20 70 28 216 16 300 -5 36 -6 37 -15 15 -5
-11 -5 -27 -1 -35 11 -24 3 -185 -14 -260 -1 -8 -6 -32 -11 -52 -4 -21 -11
-38 -16 -38 -5 0 -8 -4 -6 -8 3 -13 -62 -112 -108 -161 -22 -24 -74 -66 -115
-92 l-75 -48 -6 57 c-3 31 -4 64 -3 72 1 8 3 18 3 23 1 4 8 7 17 7 25 0 104
42 114 61 5 9 29 22 54 29 67 19 90 48 92 120 0 38 -4 64 -12 71 -7 6 -10 17
-7 25 3 8 -4 24 -16 35 -22 21 -24 40 -21 219 1 73 9 162 15 168 2 2 0 16 -4
30 -4 15 -5 38 -1 52 4 14 3 37 -1 53 -15 55 9 25 44 -55 36 -83 54 -135 62
-178 3 -13 10 -28 16 -34 9 -8 10 -3 4 19 -4 17 -8 35 -9 42 -1 7 -5 16 -9 19
-4 4 -7 15 -7 24 0 19 -35 103 -81 193 -26 53 -37 97 -24 97 3 0 25 -39 48
-88z m-1109 25 c-2 -56 -4 -67 -13 -67 -15 0 -22 31 -15 67 7 39 29 39 28 0z
m954 -58 c2 -43 -2 -77 -9 -85 -17 -21 -31 -17 -19 5 5 11 9 44 8 73 -2 43 5
78 15 78 1 0 3 -32 5 -71z m-303 29 c-12 -29 -45 -52 -45 -32 0 7 50 64 56 64
2 0 -3 -15 -11 -32z m-600 -9 c3 -10 8 -28 11 -39 4 -15 1 -20 -15 -20 -26 0
-39 23 -33 60 5 32 27 31 37 -1z m-465 -4 c0 -10 -10 -15 -30 -15 -16 0 -30
-5 -30 -11 0 -6 7 -9 15 -6 19 8 31 -13 14 -24 -18 -11 -189 -12 -189 0 0 21
30 31 84 27 32 -3 58 0 62 5 3 6 -2 10 -12 9 -57 -6 -104 1 -104 15 0 12 17
15 95 15 78 0 95 -3 95 -15z m1325 -95 c-10 -22 -25 -46 -33 -52 -12 -10 -13
-3 -7 52 4 38 14 73 23 84 16 17 17 17 26 -13 7 -23 4 -41 -9 -71z m128 31 c2
-33 0 -61 -4 -61 -4 0 -17 12 -28 26 -21 26 -21 26 -1 51 11 14 20 33 20 41 0
8 2 13 5 10 3 -3 7 -33 8 -67z m-449 38 c-3 -5 -10 -7 -15 -3 -5 3 -7 10 -3
15 3 5 10 7 15 3 5 -3 7 -10 3 -15z m-940 -49 c3 -30 11 -89 17 -130 20 -124
22 -150 23 -283 1 -126 1 -128 23 -122 19 4 22 1 21 -27 -1 -18 -7 -42 -14
-53 -17 -24 -18 -62 -1 -69 8 -3 6 -9 -7 -20 -22 -18 -20 -23 9 -28 11 -1 29
-13 40 -26 14 -16 34 -25 64 -28 25 -2 51 -10 60 -17 16 -14 46 -28 69 -33 24
-5 27 -14 29 -90 1 -64 -1 -75 -13 -70 -9 3 -19 6 -24 6 -5 0 -15 6 -22 13 -7
7 -20 18 -30 23 -46 26 -165 145 -207 208 -45 67 -99 172 -106 206 -2 8 -8 33
-14 56 -32 119 -29 219 12 380 6 24 61 163 63 161 2 -1 5 -27 8 -57z m187 46
c1 -6 2 -18 3 -26 0 -8 6 -15 11 -15 43 -3 51 -15 52 -75 0 -40 -4 -60 -11
-60 -14 0 -36 56 -36 93 0 15 -4 27 -10 27 -12 0 -12 -4 0 -55 10 -43 -1 -68
-27 -58 -10 4 -13 14 -9 34 7 38 -6 37 -23 -1 -15 -35 -34 -28 -46 18 -4 15
-14 36 -23 46 -14 16 -15 20 -3 24 8 2 27 17 43 32 28 28 77 37 79 16z m835
-38 c-8 -48 -21 -68 -45 -68 -14 0 -14 -2 -1 -10 9 -5 19 -5 27 2 7 5 20 8 28
4 13 -5 13 -9 3 -28 -16 -28 -39 -47 -56 -48 -9 0 -8 7 4 25 10 15 12 25 5 25
-6 0 -11 -7 -11 -15 0 -24 -31 -31 -46 -11 -15 21 -8 46 12 46 7 0 20 22 28
50 19 62 23 70 43 70 13 0 14 -8 9 -42z m-56 10 c0 -23 -24 -78 -34 -75 -12 4
-14 76 -1 81 20 8 35 6 35 -6z m-1066 -27 c5 -1 3 -8 -4 -16 -16 -20 -214 -22
-208 -3 3 7 15 15 27 18 18 4 151 5 185 1z m1856 -10 c0 -11 -8 -22 -20 -24
-17 -4 -17 -5 2 -4 31 2 48 -10 42 -28 -3 -8 1 -22 10 -30 34 -34 20 -40 -91
-38 -60 1 -114 2 -120 2 -7 1 -13 10 -13 21 0 22 -1 22 119 24 38 0 72 3 75 6
3 3 -43 6 -102 5 -92 0 -107 2 -110 17 -2 11 5 18 20 21 21 4 20 4 -4 6 -16 0
-32 9 -38 21 -10 19 -8 20 110 20 112 0 120 -1 120 -19z m-392 -39 c19 -18 24
-33 25 -71 0 -26 -2 -52 -4 -57 -5 -8 -3 -249 1 -249 1 0 4 -15 7 -34 3 -24 1
-32 -9 -29 -7 3 -12 12 -10 21 1 9 -7 21 -18 27 -13 7 -20 7 -20 0 0 -5 5 -10
10 -10 6 0 10 -5 10 -11 0 -17 -21 1 -30 27 -5 13 -14 24 -20 24 -7 0 -7 -7 1
-22 l12 -23 -25 23 c-13 12 -28 19 -33 15 -4 -5 -5 -3 -2 3 7 13 -14 74 -25
74 -12 0 -10 -13 8 -40 10 -17 6 -15 -13 7 -29 32 -58 116 -48 134 4 5 1 9 -4
9 -11 0 -15 -12 -12 -42 3 -25 -24 -13 -38 18 -14 31 -14 37 -1 29 6 -4 10 8
10 30 0 27 8 44 34 70 57 60 63 52 59 -85 -1 -66 1 -120 5 -120 4 0 8 26 8 58
6 223 4 212 53 227 21 6 23 5 18 -14 -3 -11 -2 -21 3 -21 13 0 19 26 10 40 -4
7 -5 20 -2 29 5 13 6 13 10 0 3 -7 16 -24 30 -37z m-1058 -23 c0 -43 8 -69 21
-69 6 0 5 8 -1 19 -5 11 -10 31 -10 45 0 23 1 24 26 12 14 -8 25 -15 25 -17 0
-9 17 -75 24 -91 10 -26 -19 -23 -44 3 -12 13 -21 17 -26 10 -4 -8 -12 -8 -26
0 -31 16 -35 3 -5 -16 14 -10 26 -24 26 -32 0 -8 4 -12 10 -8 5 3 7 12 3 20
-7 20 3 19 36 -6 28 -20 28 -22 13 -52 -25 -53 -32 -59 -50 -45 -11 9 -14 9
-9 1 4 -6 3 -14 -3 -18 -6 -4 -8 -10 -5 -15 7 -11 -24 -42 -36 -35 -5 4 -10 0
-10 -7 -1 -7 -2 -17 -4 -23 -1 -5 -3 -16 -3 -22 -1 -7 -7 -13 -13 -13 -6 0 -8
9 -4 20 4 11 2 20 -4 20 -6 0 -11 -6 -11 -13 0 -19 -46 -56 -59 -48 -8 6 -9
15 -2 33 23 62 29 154 13 198 -5 14 -8 -6 -6 -56 2 -101 -17 -159 -60 -181
-17 -9 -34 -21 -38 -27 -9 -13 -8 -21 -12 99 -2 55 -7 116 -10 135 -6 32 -4
37 24 52 17 10 30 25 30 36 0 10 9 27 20 37 19 17 20 17 30 -9 5 -15 10 -34
10 -42 0 -8 4 -13 9 -10 4 3 6 16 4 29 -4 18 0 26 15 29 26 7 37 -1 50 -37
l10 -30 1 33 c1 20 5 31 11 27 10 -6 6 56 -5 92 -3 8 5 12 20 11 22 -2 25 -7
25 -39z m-452 22 c12 -1 22 -7 22 -14 0 -9 -14 -14 -42 -14 -76 -1 -88 -3 -88
-11 0 -5 27 -8 61 -7 56 2 60 1 57 -19 -3 -20 -9 -21 -110 -23 -59 -1 -110 2
-113 7 -3 5 2 15 10 23 8 9 15 25 15 36 0 26 19 28 188 22z m656 -38 c-6 -2
-19 -10 -29 -17 -15 -11 -21 -10 -37 6 -21 21 -24 33 -5 21 20 -13 36 -12 48
3 9 11 15 12 23 3 8 -8 8 -13 0 -16z m-75 -17 c19 -20 20 -27 10 -50 -19 -40
-36 -31 -57 31 -16 49 9 60 47 19z m1628 -28 c29 1 33 -3 62 -63 66 -136 87
-215 77 -293 -6 -48 -15 -67 -18 -36 -3 41 -5 50 -12 84 -5 19 -12 40 -16 45
-4 6 -13 27 -19 48 -7 20 -19 37 -27 37 -12 0 -12 -4 1 -30 16 -32 21 -165 6
-174 -5 -3 -9 13 -9 37 0 23 -5 60 -11 82 -16 55 -20 72 -25 94 -2 10 -22 51
-43 92 -21 41 -40 78 -42 83 -2 4 7 5 20 1 13 -5 38 -7 56 -7z m-962 -21 c23
-13 26 -41 8 -71 -10 -18 -11 -18 -23 4 -15 29 -24 80 -13 80 4 -1 17 -6 28
-13z m713 0 c31 -20 4 -27 -107 -27 -95 0 -120 3 -124 14 -5 12 5 16 46 18 89
5 171 3 185 -5z m-773 -9 c4 -3 8 -12 9 -20 7 -34 27 -67 53 -88 26 -20 28
-27 29 -94 1 -68 -1 -73 -24 -84 -34 -16 -58 6 -60 53 -2 39 -18 76 -39 88 -7
5 -11 13 -7 18 7 12 -15 79 -26 79 -4 0 -10 13 -12 30 -4 29 -3 29 33 27 21
-1 41 -5 44 -9z m778 -37 c19 -1 23 -27 5 -33 -11 -3 -211 -3 -228 1 -3 1 -6
9 -7 19 -1 15 9 17 105 15 59 0 115 -2 125 -2z m-1374 -34 c5 -12 33 -51 62
-86 42 -50 49 -65 38 -72 -34 -23 -69 -39 -87 -39 -10 0 -23 -5 -29 -11 -7 -7
-19 -8 -30 -4 -10 5 -21 8 -25 7 -10 -2 -27 61 -19 68 4 3 6 15 5 27 -1 12 7
31 16 41 9 10 23 35 29 55 14 42 28 47 40 14z m751 -137 c10 -24 10 -33 0 -45
-22 -26 -35 -11 -36 44 -1 41 1 49 11 41 7 -6 18 -24 25 -40z m670 1 c0 -15
-14 -17 -127 -16 -107 0 -128 2 -128 15 0 17 88 27 193 22 51 -3 62 -7 62 -21z
m-2030 -1 c0 -14 -9 -18 -42 -19 -49 -1 -75 -5 -82 -12 -2 -2 21 -4 52 -3 67
1 82 -3 82 -22 0 -15 -3 -16 -67 -16 -24 0 -43 -4 -43 -10 0 -6 24 -8 58 -6
50 3 58 0 59 -14 2 -20 4 -19 -150 -19 -48 0 -92 3 -97 6 -25 16 -4 25 55 25
36 0 65 4 65 9 0 5 -26 8 -57 7 -32 -1 -63 1 -70 6 -19 15 -4 36 22 33 13 -1
29 2 37 6 9 6 2 9 -19 9 -31 0 -49 12 -40 28 3 4 57 7 121 8 104 1 116 -1 116
-16z m497 -47 c-3 -2 -17 -3 -32 -1 l-28 3 29 33 29 33 3 -32 c2 -17 1 -33 -1
-36z m693 -3 c0 -15 -21 -12 -42 7 -28 25 -21 35 12 18 17 -9 30 -20 30 -25z
m-31 -17 c3 -5 25 -17 49 -28 52 -22 95 -75 62 -75 -5 0 -10 7 -10 16 0 8 -15
21 -34 29 -19 8 -38 19 -41 25 -5 8 -11 7 -21 -1 -11 -9 -14 -9 -14 1 0 8 -3
10 -7 7 -3 -4 6 -19 20 -33 15 -15 28 -34 29 -43 0 -9 2 -20 3 -26 2 -5 3 -16
4 -24 1 -9 9 -11 27 -7 28 8 144 -3 144 -13 0 -3 -62 -7 -137 -8 -75 -2 -141
-7 -146 -12 -5 -5 3 -22 22 -42 17 -18 30 -33 29 -34 -2 -1 -20 -5 -40 -8 -29
-4 -38 -2 -38 9 0 22 -11 17 -52 -23 -27 -26 -41 -34 -48 -27 -8 8 2 27 32 64
83 102 82 100 63 100 -9 0 -29 -7 -45 -15 -17 -9 -31 -15 -32 -14 -2 0 -21 -3
-43 -7 -22 -5 -43 -8 -47 -9 -3 0 -9 -3 -13 -7 -13 -13 -36 4 -30 22 8 25 -8
33 -39 19 -31 -14 -35 -33 -6 -24 17 5 20 2 20 -21 0 -29 -5 -28 83 -9 9 2 17
0 17 -4 0 -4 -24 -13 -52 -20 -29 -6 -63 -14 -75 -17 -20 -5 -23 -2 -23 20 0
29 -3 31 -33 14 -12 -6 -31 -13 -42 -14 -11 -2 -37 -7 -58 -13 -35 -8 -37 -8
-33 13 7 40 39 94 58 99 18 5 19 2 13 -34 -6 -37 -5 -39 19 -39 29 0 76 19 76
31 0 5 -12 4 -26 -1 -14 -6 -29 -10 -33 -10 -10 0 -12 50 -2 51 3 0 20 2 36 5
46 7 199 9 210 2 12 -7 122 -4 129 3 9 9 66 -3 60 -12 -8 -13 25 -24 37 -12 6
6 5 14 -5 22 -8 7 -13 18 -10 26 3 7 -15 28 -43 50 -46 35 -51 37 -106 32 -58
-5 -58 -5 -41 14 10 11 26 18 35 16 9 -3 22 -1 28 2 15 9 113 4 120 -6z m-712
-23 c24 0 43 -4 43 -9 0 -5 -21 -8 -46 -7 -34 2 -49 7 -56 22 -9 16 -8 17 3 7
7 -7 32 -13 56 -13z m173 7 c-8 -8 -32 -24 -52 -36 -31 -18 -37 -19 -32 -6 4
9 9 13 12 11 3 -3 12 0 20 6 14 12 53 35 62 37 2 1 -2 -5 -10 -12z m824 2 c-3
-5 -11 -9 -19 -9 -8 0 -16 4 -19 9 -3 5 5 9 19 9 14 0 22 -4 19 -9z m-904 -5
c0 -1 -7 -14 -15 -30 -10 -19 -11 -32 -4 -40 16 -20 -36 -48 -81 -46 -21 2
-41 -2 -45 -8 -10 -17 -25 -11 -18 8 5 14 3 15 -8 5 -19 -18 -34 -16 -19 2 13
16 5 19 -47 17 -15 -1 -20 3 -16 14 6 17 65 19 92 2 14 -9 26 -9 43 -1 13 5
33 9 46 8 12 -1 22 2 22 6 0 14 -26 16 -60 4 -29 -10 -41 -9 -67 3 -18 9 -33
20 -33 24 0 5 -10 13 -22 18 l-23 9 22 0 c12 1 30 -7 40 -18 10 -10 27 -16 38
-14 11 2 41 5 68 5 43 0 52 6 48 30 0 4 8 6 19 5 11 -1 20 -2 20 -3z m403 -3
c5 -1 5 -5 2 -11 -9 -14 -68 -12 -89 3 -17 13 -8 13 87 8z m422 0 c-16 -15
-83 -40 -89 -33 -14 13 -4 21 37 30 58 13 63 14 52 3z m85 -21 c-24 -15 -37
-11 -16 5 11 8 22 12 25 9 3 -3 -1 -9 -9 -14z m-841 -23 c-15 -12 -32 -32 -38
-45 -14 -26 -32 -20 -28 10 4 20 76 72 87 62 3 -3 -7 -16 -21 -27z m446 -17
c11 -13 19 -27 18 -29 -2 -3 -19 -6 -39 -8 -30 -2 -38 3 -52 27 -9 17 -20 30
-24 30 -5 0 -8 5 -8 10 0 27 37 3 59 -39 7 -12 15 -20 18 -17 3 3 -2 17 -11
30 -36 56 -7 53 39 -4z m345 35 c0 -8 3 -14 8 -14 4 1 42 1 85 0 51 -1 76 -5
72 -11 -4 -6 -28 -10 -53 -9 -26 0 -58 -1 -72 -3 -27 -4 -84 28 -75 43 10 15
35 10 35 -6z m-1085 -5 c8 -13 -20 -24 -42 -16 -15 6 -15 8 -3 16 20 13 37 12
45 0z m442 -3 c7 19 57 -10 71 -41 15 -34 2 -33 -33 4 -31 33 -50 33 -20 0 10
-11 15 -23 10 -28 -4 -4 -10 -1 -12 6 -3 6 -11 12 -19 12 -8 0 -14 6 -14 14 0
8 -5 18 -11 21 -20 13 -19 -2 2 -28 16 -22 17 -27 5 -27 -8 0 -24 13 -35 29
-25 34 -26 42 -7 35 8 -3 17 0 21 6 5 8 11 7 23 -2 12 -10 16 -10 19 -1z m370
-21 c13 -11 23 -23 23 -28 0 -17 -16 -7 -44 29 -30 37 -22 36 21 -1z m86 3 c1
3 11 0 21 -6 17 -9 18 -15 9 -35 l-11 -23 -10 25 c-5 14 -17 32 -26 39 -9 7
-16 19 -16 25 0 6 7 2 16 -9 8 -11 16 -18 17 -16z m-365 3 c9 -10 24 -26 32
-37 14 -17 14 -18 -10 -5 -25 13 -49 39 -50 53 0 12 9 8 28 -11z m54 -7 c6
-14 15 -25 20 -25 11 0 10 7 -2 31 -6 10 -9 19 -6 19 18 0 39 -17 52 -41 15
-30 8 -39 -14 -17 -10 10 -15 10 -22 -2 -8 -12 -15 -10 -40 17 -34 36 -36 43
-15 43 9 0 21 -11 27 -25z m192 -8 c11 -15 17 -29 14 -32 -3 -3 -18 11 -33 31
-16 20 -22 35 -15 32 8 -2 23 -16 34 -31z m-1086 14 c12 -1 22 -7 22 -15 0
-11 -26 -14 -122 -15 -111 -1 -148 6 -148 28 0 5 152 6 248 2z m1372 -11 l25
-21 -26 6 c-36 9 -62 13 -77 14 -24 2 -4 17 25 19 16 1 39 -7 53 -18z m-696
-16 c9 -23 8 -24 -19 -24 -23 0 -24 2 -13 20 15 24 24 25 32 4z m911 6 c3 -5
1 -10 -4 -10 -6 0 -11 5 -11 10 0 6 2 10 4 10 3 0 8 -4 11 -10z m-239 -16 c22
-4 51 -7 67 -8 35 -1 34 -5 -3 -17 -16 -6 -28 -14 -26 -18 3 -4 0 -13 -5 -21
-7 -11 -8 -8 -5 12 4 25 1 28 -32 33 -54 9 -64 14 -57 25 4 6 10 8 15 5 4 -3
25 -8 46 -11z m210 4 c4 -7 4 -10 -1 -6 -4 4 -22 -1 -39 -12 -18 -11 -37 -16
-44 -11 -21 13 16 35 65 40 6 0 15 -5 19 -11z m-1524 -23 c4 -5 8 -13 8 -16 0
-3 -61 -7 -135 -8 -124 -2 -135 -1 -135 16 0 16 11 18 127 18 74 0 131 -4 135
-10z m1978 -20 c0 -19 -5 -37 -12 -41 -7 -4 -70 -8 -141 -9 -125 -1 -128 -1
-123 19 3 12 6 29 6 38 0 20 13 22 158 25 l112 2 0 -34z m-439 15 c23 -13 26
-66 5 -93 -8 -10 -31 -21 -51 -24 -26 -4 -51 -19 -76 -44 -38 -38 -86 -57
-144 -59 -36 -2 -50 1 -93 19 -28 12 -35 12 -50 -1 -49 -43 -141 -57 -177 -28
-24 20 -7 29 31 17 30 -9 37 -8 45 5 6 11 29 19 67 23 31 3 72 8 90 11 33 5
33 5 17 30 -9 14 -14 29 -10 32 4 4 30 8 58 8 87 3 93 4 80 12 -12 8 -172 7
-180 -1 -2 -3 2 -15 9 -26 11 -18 11 -23 -2 -31 -11 -7 -20 -4 -32 13 -10 12
-25 29 -34 38 -25 27 -3 32 145 36 75 2 141 5 148 8 7 2 9 13 6 27 -6 21 -3
20 33 -12 44 -39 38 -49 -29 -45 -21 1 -40 -2 -43 -6 -6 -10 -5 -10 89 -13 38
-1 70 1 73 5 2 4 -14 19 -36 34 -39 27 -56 60 -25 49 8 -3 22 1 30 10 19 19
29 20 56 6z m-1221 -40 c0 -4 -21 -20 -46 -35 -36 -21 -48 -24 -60 -15 -21 19
-17 32 17 61 30 24 34 25 61 12 15 -8 28 -18 28 -23z m132 20 c-18 -11 -54
-30 -80 -42 -43 -20 -66 -38 -58 -46 2 -1 39 -5 82 -8 44 -3 80 -7 82 -9 2 -2
-4 -15 -13 -29 -16 -25 -16 -26 1 -26 24 -1 114 -9 136 -13 46 -8 16 -12 -83
-12 -96 0 -109 2 -109 17 0 9 5 20 10 23 6 3 10 13 10 21 0 12 -14 14 -75 11
-42 -3 -78 -1 -80 4 -3 4 -13 5 -23 2 -9 -3 -15 -3 -12 0 10 11 81 57 89 57 4
0 18 11 31 25 13 14 33 25 44 25 12 0 28 5 36 10 8 5 22 10 30 10 8 0 0 -9
-18 -20z m875 7 c9 -10 -48 -7 -72 3 -15 7 -9 9 22 6 24 -1 46 -5 50 -9z m983
3 c0 -5 -2 -10 -4 -10 -3 0 -8 5 -11 10 -3 6 -1 10 4 10 6 0 11 -4 11 -10z
m-1743 -25 c2 -1 -7 -25 -18 -55 -22 -58 -15 -79 18 -61 11 5 31 12 44 15 13
3 39 9 56 15 35 10 47 3 37 -23 -8 -22 15 -21 100 4 38 11 72 18 74 15 8 -8
-10 -25 -27 -25 -18 0 -35 -31 -32 -56 2 -22 -29 -23 -48 -2 -11 11 -44 28
-73 38 -44 15 -55 16 -64 5 -5 -8 -21 -12 -35 -11 -50 6 -109 18 -109 22 0 3
7 16 16 29 18 28 22 27 -66 30 -78 4 -78 4 -50 18 14 8 42 24 63 36 21 12 42
19 46 17 4 -3 13 -1 21 4 9 5 20 4 30 -3 8 -6 16 -12 17 -12z m381 -56 c-12
-16 -24 -26 -26 -20 -5 16 17 51 34 51 11 0 10 -7 -8 -31z m-28 17 c0 -2 -7
-7 -16 -10 -8 -3 -12 -2 -9 4 6 10 25 14 25 6z m1040 -8 c0 -5 0 -12 0 -17 0
-5 -62 -9 -141 -8 -130 1 -140 2 -122 17 15 12 46 15 141 15 67 0 122 -3 122
-7z m-1918 -11 c11 -18 -1 -27 -34 -27 -17 0 -29 -3 -25 -6 3 -4 24 -6 46 -6
45 1 62 -22 34 -45 -16 -13 -16 -14 10 -8 23 5 29 1 40 -22 6 -15 23 -38 37
-50 l25 -22 -171 -1 c-148 0 -173 2 -178 16 -3 9 -4 19 -2 23 3 3 67 6 144 6
77 0 139 2 137 5 -2 4 -70 6 -150 5 -132 -1 -147 0 -156 17 -7 14 -6 18 5 18
8 0 18 6 22 13 4 6 4 9 -1 5 -11 -10 -45 10 -45 27 0 7 8 16 18 18 9 2 7 3 -5
2 -20 -2 -33 12 -33 34 0 13 274 10 282 -2z m358 -66 c0 -3 -4 -13 -9 -20 -17
-27 -141 -10 -141 18 0 4 34 7 75 8 41 0 75 -2 75 -6z m604 -9 c2 -4 1 -14 -4
-22 -7 -11 -12 -12 -21 -3 -6 6 -8 16 -5 22 8 13 23 14 30 3z m36 -2 c0 -5 -5
-10 -11 -10 -5 0 -7 5 -4 10 3 6 8 10 11 10 2 0 4 -4 4 -10z m-345 -36 c-20
-15 -38 -18 -48 -7 -13 13 14 30 40 25 25 -5 25 -6 8 -18z m185 23 c0 -2 -9
-12 -20 -22 -19 -18 -20 -17 -20 3 0 15 6 22 20 22 11 0 20 -2 20 -3z m46 -24
c-10 -11 -36 -12 -36 -2 0 5 10 9 22 9 12 0 18 -3 14 -7z m-443 -20 c-13 -2
-33 -2 -45 0 -13 2 -3 4 22 4 25 0 35 -2 23 -4z m139 -10 c12 -14 8 -15 -37
-9 -74 11 -88 24 -28 24 35 1 56 -4 65 -15z m78 13 c0 -2 -7 -7 -16 -10 -8 -3
-12 -2 -9 4 6 10 25 14 25 6z m528 -13 c40 -5 42 -7 42 -39 0 -19 -3 -34 -7
-34 -5 0 -38 15 -74 33 -42 20 -64 37 -61 46 3 8 13 11 31 7 14 -4 45 -9 69
-13z m-1058 -62 c21 -2 38 -14 42 -30 2 -11 -28 -13 -166 -13 -150 0 -171 2
-183 17 -7 10 -11 21 -9 24 3 5 245 6 316 2z m1100 -76 c0 -48 -5 -53 -77 -78
-75 -26 -121 -3 -103 49 10 27 19 33 88 51 42 11 80 21 85 22 4 0 7 -19 7 -44z
m-1006 2 c14 -10 26 -19 26 -21 0 -2 -86 -4 -191 -3 -171 0 -191 2 -200 18
-12 23 -7 24 182 23 130 0 161 -3 183 -17z m74 -55 c12 -7 21 -16 18 -20 -2
-4 -92 -7 -200 -6 -145 1 -199 4 -211 14 -9 8 -12 16 -6 19 19 12 375 6 399
-7z m562 -41 c0 -5 6 -16 13 -23 65 -67 72 -147 18 -200 -26 -25 -32 -27 -37
-14 -3 9 -10 14 -14 11 -15 -9 -39 31 -45 77 -5 39 -2 58 19 103 22 48 46 72
46 46z m126 -76 c10 -16 19 -37 21 -45 4 -23 -17 -80 -29 -80 -6 0 -8 -3 -5
-7 12 -12 -35 -53 -61 -53 l-24 0 26 31 c25 29 34 50 40 94 2 11 -10 41 -26
68 -15 26 -28 52 -28 57 0 17 68 -34 86 -65z m-204 26 c-6 -16 -9 -58 -8 -92
2 -54 6 -64 29 -81 31 -23 34 -35 10 -40 -21 -4 -95 60 -86 74 3 6 0 14 -6 18
-18 10 2 79 34 116 14 16 25 33 25 38 0 5 3 7 6 3 4 -3 2 -19 -4 -36z m272
-20 c3 -5 0 -14 -8 -20 -10 -8 -16 -8 -25 3 -9 11 -9 15 1 19 20 8 26 8 32 -2z
m-367 -78 c-3 -10 -5 -4 -5 12 0 17 2 24 5 18 2 -7 2 -21 0 -30z m373 28 c0
-17 -18 -21 -24 -6 -3 9 0 15 9 15 8 0 15 -4 15 -9z m508 -25 c-20 -18 -35
-22 -62 -19 -20 2 -36 -1 -36 -5 0 -5 14 -8 30 -6 37 4 38 -6 2 -27 -40 -23
-397 -26 -388 -3 3 9 6 20 6 25 0 5 8 10 18 10 16 1 16 2 0 6 -10 2 -18 13
-18 24 0 18 10 19 238 19 l237 -1 -27 -23z m-478 -21 c-5 -14 -8 -25 -5 -25
16 0 -66 -70 -89 -76 l-29 -7 19 32 c10 17 22 31 26 31 4 0 8 7 8 15 0 8 4 15
9 15 5 0 19 11 32 24 28 29 42 25 29 -9z m-382 -49 c19 -20 38 -36 43 -36 6 0
7 -5 4 -10 -8 -14 -80 -7 -99 9 -15 13 -27 58 -19 78 7 17 29 4 71 -41z m685
-50 c-34 -19 -55 -21 -195 -22 -87 0 -158 0 -158 1 0 1 15 12 33 25 30 23 40
24 174 25 78 1 145 4 149 8 4 4 13 2 21 -4 10 -9 5 -16 -24 -33z m-750 -1 c23
-12 36 -24 32 -33 -2 -7 -1 -11 4 -8 4 3 16 -3 26 -14 10 -11 24 -20 32 -20 7
0 13 -3 13 -8 0 -9 -198 -7 -228 2 -12 4 -32 9 -44 12 -13 2 -36 8 -53 13
l-30 9 32 1 c62 2 40 17 -26 17 -49 1 -81 7 -121 26 l-55 25 190 -1 c166 -1
195 -4 228 -21z m332 -29 c14 -8 22 -17 17 -20 -13 -8 -198 0 -212 9 -6 4 -17
2 -25 -5 -8 -7 -15 -7 -19 -1 -7 11 23 23 67 26 15 2 30 5 33 8 10 9 112 -3
139 -17z m315 -17 c0 -11 -176 -46 -229 -45 -62 1 -74 14 -33 36 20 12 56 16
145 16 64 -1 117 -3 117 -7z m-382 -25 c32 -4 52 -12 52 -20 0 -7 12 -22 27
-33 14 -12 23 -24 20 -28 -4 -3 -22 10 -41 29 -20 21 -47 37 -65 40 -34 5 -98
-19 -120 -45 -17 -22 1 -23 32 -2 12 8 40 16 62 19 46 6 73 -11 99 -62 20 -39
20 -65 1 -102 -19 -36 -2 -40 21 -5 11 16 14 38 11 65 -5 43 4 58 22 36 18
-21 20 -79 4 -110 -19 -37 -68 -85 -100 -97 -73 -27 -178 12 -214 81 -24 46
-22 96 5 139 14 22 34 42 46 46 11 3 20 14 20 24 0 33 17 37 118 25z"/>
<path d="M1431 2628 c0 -22 1 -22 9 -3 9 19 9 19 16 -2 3 -13 10 -20 15 -17
13 8 -9 44 -26 44 -9 0 -15 -9 -14 -22z"/>
<path d="M1492 2511 c-13 -8 -6 -41 8 -41 4 0 13 6 19 14 14 17 -8 39 -27 27z"/>
<path d="M955 2450 c4 -6 11 -8 16 -5 14 9 11 15 -7 15 -8 0 -12 -5 -9 -10z"/>
<path d="M1579 2213 c-5 -14 -7 -39 -4 -54 6 -24 2 -30 -27 -45 -47 -24 -68
-44 -69 -68 0 -12 -3 -15 -6 -8 -2 6 -9 12 -14 12 -7 0 6 -43 19 -60 6 -8 22
24 22 46 0 26 32 56 55 52 18 -3 22 2 49 65 14 32 14 37 1 37 -18 0 -18 5 -5
31 8 13 7 19 0 19 -6 0 -15 -12 -21 -27z"/>
<path d="M1497 2190 c-8 -19 -28 -49 -44 -66 -30 -31 -33 -54 -7 -54 7 0 17
12 20 28 4 15 18 44 32 64 13 20 22 43 19 50 -2 7 -11 -3 -20 -22z"/>
<path d="M1410 2135 c0 -14 3 -25 8 -25 4 0 7 11 7 25 0 14 -3 25 -7 25 -5 0
-8 -11 -8 -25z"/>
<path d="M1545 2060 c-3 -5 -7 -31 -10 -57 -2 -26 -15 -69 -28 -95 -25 -46
-29 -85 -11 -81 5 1 12 20 16 43 4 24 14 52 21 64 8 11 16 47 19 79 5 58 4 64
-7 47z"/>
<path d="M1599 2048 c-1 -7 -2 -20 -3 -28 -1 -8 2 -20 7 -27 15 -22 17 -63 4
-95 -11 -28 -14 -64 -8 -108 0 -5 6 -10 11 -10 6 0 11 21 11 48 0 26 0 70 1
97 2 72 -5 135 -14 135 -4 0 -9 -6 -9 -12z"/>
<path d="M931 2029 c-7 -12 -10 -23 -8 -26 3 -3 11 5 17 17 15 28 8 35 -9 9z"/>
<path d="M924 1961 c1 -23 46 -65 46 -43 0 6 -9 13 -19 17 -11 3 -22 16 -24
28 -4 20 -4 20 -3 -2z"/>
<path d="M1663 1911 c0 -11 4 -18 8 -15 10 6 19 -22 19 -57 0 -43 28 -95 43
-80 9 9 9 14 1 19 -12 8 -29 58 -39 115 -6 38 -35 54 -32 18z"/>
<path d="M1625 1690 c4 -6 11 -8 16 -5 14 9 11 15 -7 15 -8 0 -12 -5 -9 -10z"/>
<path d="M1791 1513 c13 -15 12 -16 -6 -9 -26 10 -59 17 -53 11 7 -8 99 -55
106 -55 3 0 -3 7 -15 15 -12 9 -20 22 -17 29 3 7 -2 16 -12 20 -15 6 -15 4 -3
-11z"/>
<path d="M1690 1470 c0 -5 5 -10 11 -10 5 0 7 5 4 10 -3 6 -8 10 -11 10 -2 0
-4 -4 -4 -10z"/>
<path d="M1475 1460 c3 -5 8 -10 11 -10 2 0 4 5 4 10 0 6 -5 10 -11 10 -5 0
-7 -4 -4 -10z"/>
<path d="M1497 1408 c27 -35 23 -48 -22 -77 -24 -15 -42 -31 -39 -34 8 -7 44
4 44 14 0 5 12 15 26 21 19 9 24 18 21 35 -3 19 -2 21 10 11 16 -13 73 -19 73
-6 0 4 -9 8 -20 8 -31 0 -33 1 -62 21 -30 22 -45 25 -31 7z"/>
<path d="M1770 1380 c6 -11 16 -20 22 -20 6 0 3 9 -7 20 -10 11 -20 20 -22 20
-2 0 1 -9 7 -20z"/>
<path d="M1626 1331 c-3 -4 6 -6 19 -3 14 2 25 6 25 8 0 8 -39 4 -44 -5z"/>
<path d="M2626 2159 c-17 -16 -17 -19 -3 -19 14 0 47 25 47 36 0 11 -27 1 -44
-17z"/>
<path d="M2657 2141 c-15 -16 -16 -20 -3 -30 8 -7 19 -10 25 -7 5 4 11 -4 13
-16 2 -12 9 -23 17 -26 9 -3 11 2 6 17 -7 22 10 30 18 9 2 -7 8 -10 12 -6 12
11 -14 38 -36 38 -11 0 -19 5 -19 11 0 5 5 7 10 4 6 -3 10 -2 10 3 0 6 -7 13
-16 16 -19 7 -15 9 -37 -13z"/>
<path d="M2743 2053 c-14 -5 -18 -23 -5 -23 5 0 17 7 28 15 14 11 15 14 4 14
-8 0 -21 -3 -27 -6z"/>
<path d="M2900 1711 c0 -6 5 -13 10 -16 6 -3 10 1 10 9 0 9 -4 16 -10 16 -5 0
-10 -4 -10 -9z"/>
<path d="M2330 2099 c0 -5 11 -9 25 -9 14 0 25 2 25 4 0 2 -11 6 -25 8 -14 3
-25 1 -25 -3z"/>
<path d="M2278 2093 c7 -3 16 -2 19 1 4 3 -2 6 -13 5 -11 0 -14 -3 -6 -6z"/>
<path d="M1180 1768 c0 -12 3 -18 7 -14 11 10 12 36 2 36 -5 0 -9 -10 -9 -22z"/>
<path d="M2490 1862 c0 -5 7 -9 15 -9 8 0 15 4 15 9 0 4 -7 8 -15 8 -8 0 -15
-4 -15 -8z"/>
<path d="M2438 1813 c7 -3 16 -2 19 1 4 3 -2 6 -13 5 -11 0 -14 -3 -6 -6z"/>
<path d="M2405 1520 c-3 -5 -1 -10 4 -10 6 0 11 5 11 10 0 6 -2 10 -4 10 -3 0
-8 -4 -11 -10z"/>
<path d="M2520 1299 c0 -5 5 -7 10 -4 6 3 10 8 10 11 0 2 -4 4 -10 4 -5 0 -10
-5 -10 -11z"/>
<path d="M2550 1299 c0 -5 5 -7 10 -4 6 3 10 8 10 11 0 2 -4 4 -10 4 -5 0 -10
-5 -10 -11z"/>
<path d="M2580 1299 c0 -5 5 -7 10 -4 6 3 10 8 10 11 0 2 -4 4 -10 4 -5 0 -10
-5 -10 -11z"/>
<path d="M2610 1299 c0 -5 5 -7 10 -4 6 3 10 8 10 11 0 2 -4 4 -10 4 -5 0 -10
-5 -10 -11z"/>
<path d="M2640 1299 c0 -5 5 -7 10 -4 6 3 10 8 10 11 0 2 -4 4 -10 4 -5 0 -10
-5 -10 -11z"/>
<path d="M2553 1003 c9 -2 23 -2 30 0 6 3 -1 5 -18 5 -16 0 -22 -2 -12 -5z"/>
<path d="M2613 1003 c9 -2 23 -2 30 0 6 3 -1 5 -18 5 -16 0 -22 -2 -12 -5z"/>
<path d="M2426 892 c-3 -5 1 -9 9 -9 8 0 15 4 15 9 0 4 -4 8 -9 8 -6 0 -12 -4
-15 -8z"/>
<path d="M2465 890 c-2 -4 11 -7 30 -7 19 0 33 3 30 5 -8 8 -56 9 -60 2z"/>
<path d="M1728 871 c-34 -19 -45 -45 -28 -71 8 -12 13 -13 27 -3 58 41 118 71
132 66 13 -5 14 -3 4 7 -19 21 -96 21 -135 1z m28 -27 c-15 -14 -31 -22 -35
-19 -7 8 36 45 53 45 6 0 -2 -12 -18 -26z"/>
<path d="M1395 870 c-7 -12 -8 -11 28 -14 17 -1 40 -15 58 -34 35 -38 67 -39
80 -5 7 18 3 26 -16 39 -27 18 -141 28 -150 14z m135 -35 c21 -25 1 -31 -22
-7 -18 18 -19 22 -6 22 8 0 21 -7 28 -15z"/>
<path d="M2380 838 c0 -5 16 -8 35 -8 19 0 35 4 35 8 0 5 -16 8 -35 8 -19 -1
-35 -4 -35 -8z"/>
<path d="M2470 840 c0 -5 5 -10 11 -10 5 0 7 5 4 10 -3 6 -8 10 -11 10 -2 0
-4 -4 -4 -10z"/>
<path d="M2330 719 c0 -5 5 -7 10 -4 6 3 10 8 10 11 0 2 -4 4 -10 4 -5 0 -10
-5 -10 -11z"/>
<path d="M2366 722 c-3 -5 8 -6 25 -4 16 2 29 6 29 8 0 8 -49 4 -54 -4z"/>
<path d="M2430 720 c0 -5 5 -10 10 -10 6 0 10 5 10 10 0 6 -4 10 -10 10 -5 0
-10 -4 -10 -10z"/>
<path d="M1232 670 c-12 -19 -10 -20 73 -20 47 0 85 4 85 9 0 13 -25 20 -39
11 -12 -7 -57 0 -91 14 -9 4 -20 -2 -28 -14z"/>
<path d="M835 660 c-2 -3 14 -6 36 -6 21 -1 39 2 39 5 0 8 -70 9 -75 1z"/>
<path d="M920 658 c0 -8 37 -10 120 -9 68 0 110 4 110 10 0 4 -52 6 -115 6
-63 0 -115 -3 -115 -7z"/>
<path d="M1165 659 c-4 -5 1 -9 9 -9 9 0 19 0 23 -1 4 0 9 3 10 8 4 12 -35 14
-42 2z"/>
<path d="M2270 660 c-8 -5 0 -7 18 -7 17 1 29 4 26 6 -8 9 -31 9 -44 1z"/>
<path d="M970 600 c-23 -7 -23 -8 -3 -9 12 -1 25 4 28 9 3 6 5 10 3 9 -2 -1
-14 -5 -28 -9z"/>
<path d="M1015 600 c-3 -5 -1 -10 4 -10 6 0 11 5 11 10 0 6 -2 10 -4 10 -3 0
-8 -4 -11 -10z"/>
<path d="M1054 598 c-3 -5 8 -7 25 -6 33 2 33 11 0 13 -11 1 -22 -2 -25 -7z"/>
<path d="M1155 600 c-2 -3 14 -6 36 -7 21 -1 39 1 39 5 0 8 -70 10 -75 2z"/>
<path d="M1255 600 c-3 -5 -1 -10 4 -10 6 0 11 5 11 10 0 6 -2 10 -4 10 -3 0
-8 -4 -11 -10z"/>
<path d="M1294 598 c-3 -5 8 -7 25 -6 33 2 33 11 0 13 -11 1 -22 -2 -25 -7z"/>
<path d="M1000 540 c0 -6 7 -10 15 -10 8 0 15 2 15 4 0 2 -7 6 -15 10 -8 3
-15 1 -15 -4z"/>
<path d="M1365 540 c-19 -8 -19 -9 3 -9 12 -1 22 4 22 9 0 6 -1 10 -2 9 -2 0
-12 -4 -23 -9z"/>
<path d="M1048 533 c7 -3 16 -2 19 1 4 3 -2 6 -13 5 -11 0 -14 -3 -6 -6z"/>
<path d="M1093 533 c9 -2 25 -2 35 0 9 3 1 5 -18 5 -19 0 -27 -2 -17 -5z"/>
<path d="M1188 533 c6 -2 18 -2 25 0 6 3 1 5 -13 5 -14 0 -19 -2 -12 -5z"/>
<path d="M1238 533 c6 -2 18 -2 25 0 6 3 1 5 -13 5 -14 0 -19 -2 -12 -5z"/>
<path d="M1308 533 c6 -2 18 -2 25 0 6 3 1 5 -13 5 -14 0 -19 -2 -12 -5z"/>
<path d="M1006 1787 c3 -10 9 -15 12 -12 3 3 0 11 -7 18 -10 9 -11 8 -5 -6z"/>
<path d="M1015 1738 c1 -12 6 -23 12 -25 7 -3 9 4 6 17 -7 28 -20 34 -18 8z"/>
<path d="M2535 1720 c-3 -5 -1 -10 4 -10 6 0 11 5 11 10 0 6 -2 10 -4 10 -3 0
-8 -4 -11 -10z"/>
<path d="M2483 1713 c9 -2 23 -2 30 0 6 3 -1 5 -18 5 -16 0 -22 -2 -12 -5z"/>
<path d="M2186 1631 c-4 -7 -5 -15 -2 -18 9 -9 19 4 14 18 -4 11 -6 11 -12 0z"/>
<path d="M2181 1590 c-1 -8 -5 -26 -7 -40 -3 -18 -2 -22 6 -14 7 7 10 24 7 40
-2 16 -5 22 -6 14z"/>
<path d="M2172 1500 c-6 -66 -2 -150 8 -150 7 0 6 157 -1 164 -2 3 -6 -4 -7
-14z"/>
<path d="M1115 1540 c-3 -5 -1 -10 4 -10 6 0 11 5 11 10 0 6 -2 10 -4 10 -3 0
-8 -4 -11 -10z"/>
<path d="M1122 1495 c0 -16 2 -22 5 -12 2 9 2 23 0 30 -3 6 -5 -1 -5 -18z"/>
<path d="M1190 1504 c0 -8 5 -12 10 -9 6 4 8 11 5 16 -9 14 -15 11 -15 -7z"/>
<path d="M1116 1451 c-4 -7 -5 -15 -2 -18 9 -9 19 4 14 18 -4 11 -6 11 -12 0z"/>
<path d="M1108 1395 c-3 -14 -1 -25 3 -25 5 0 9 11 9 25 0 14 -2 25 -4 25 -2
0 -6 -11 -8 -25z"/>
<path d="M585 1660 c-3 -6 1 -7 9 -4 18 7 21 14 7 14 -6 0 -13 -4 -16 -10z"/>
<path d="M550 1350 c0 -5 5 -10 10 -10 6 0 10 5 10 10 0 6 -4 10 -10 10 -5 0
-10 -4 -10 -10z"/>
<path d="M2470 1159 c0 -5 11 -9 25 -9 14 0 25 2 25 4 0 2 -11 6 -25 8 -14 3
-25 1 -25 -3z"/>
<path d="M2535 1160 c-3 -5 -1 -10 4 -10 6 0 11 5 11 10 0 6 -2 10 -4 10 -3 0
-8 -4 -11 -10z"/>
<path d="M2605 1160 c-19 -8 -19 -9 3 -9 12 -1 22 4 22 9 0 6 -1 10 -2 9 -2 0
-12 -4 -23 -9z"/>
<path d="M2655 1160 c-3 -5 -1 -10 4 -10 6 0 11 5 11 10 0 6 -2 10 -4 10 -3 0
-8 -4 -11 -10z"/>
<path d="M588 1053 c6 -2 18 -2 25 0 6 3 1 5 -13 5 -14 0 -19 -2 -12 -5z"/>
<path d="M638 1053 c7 -3 16 -2 19 1 4 3 -2 6 -13 5 -11 0 -14 -3 -6 -6z"/>
<path d="M683 1053 c9 -2 23 -2 30 0 6 3 -1 5 -18 5 -16 0 -22 -2 -12 -5z"/>
<path d="M600 1000 c-6 -4 7 -7 30 -7 43 0 48 7 7 11 -14 2 -31 0 -37 -4z"/>
<path d="M685 1000 c-3 -5 1 -10 9 -10 9 0 16 5 16 10 0 6 -4 10 -9 10 -6 0
-13 -4 -16 -10z"/>
<path d="M724 1003 c10 -11 66 -11 66 -1 0 4 -16 8 -37 8 -20 0 -33 -3 -29 -7z"/>
<path d="M1955 540 c3 -5 8 -10 11 -10 2 0 4 5 4 10 0 6 -5 10 -11 10 -5 0 -7
-4 -4 -10z"/>
<path d="M1988 543 c6 -2 18 -2 25 0 6 3 1 5 -13 5 -14 0 -19 -2 -12 -5z"/>
<path d="M2035 540 c3 -5 8 -10 11 -10 2 0 4 5 4 10 0 6 -5 10 -11 10 -5 0 -7
-4 -4 -10z"/>
<path d="M2096 538 c3 -5 10 -6 15 -3 13 9 11 12 -6 12 -8 0 -12 -4 -9 -9z"/>
<path d="M2136 541 c9 -9 34 -9 34 -1 0 5 -9 8 -20 7 -10 -1 -17 -3 -14 -6z"/>
<path d="M1270 407 c0 -5 40 -7 90 -5 49 2 90 6 90 10 0 4 -40 6 -90 5 -49 -1
-90 -5 -90 -10z"/>
<path d="M1315 3192 c-2 -2 -18 -6 -37 -8 -18 -3 -40 -7 -48 -10 -8 -3 -26 -8
-40 -10 -60 -12 -236 -78 -317 -121 -81 -42 -222 -132 -249 -157 -6 -6 -30
-27 -53 -46 -95 -78 -208 -206 -289 -326 -78 -117 -175 -320 -196 -409 -9 -44
7 -12 34 65 82 235 285 522 480 679 25 20 51 42 58 49 29 26 54 35 63 21 5 -8
9 -19 9 -25 0 -6 6 -16 13 -23 15 -12 56 -93 82 -160 36 -97 52 -242 29 -262
-9 -7 -14 -8 -14 -1 0 6 -8 9 -17 7 -10 -2 -22 -4 -26 -4 -4 -1 -15 -17 -23
-36 -13 -31 -13 -39 0 -64 14 -26 14 -30 -7 -48 -35 -32 -100 -73 -115 -73 -8
0 -26 9 -41 20 l-28 19 -59 -58 c-32 -32 -85 -94 -117 -139 l-59 -81 28 -36
27 -36 18 27 c21 32 14 54 -8 27 -8 -10 -12 -13 -9 -6 4 6 2 14 -4 18 -15 9
-12 38 6 61 8 10 12 13 9 6 -6 -12 19 -41 37 -42 9 0 38 30 38 40 0 5 -9 18
-21 29 -12 11 -18 25 -14 31 4 7 15 1 31 -17 24 -27 24 -28 30 -6 3 11 15 24
26 26 12 3 17 10 13 17 -4 6 -10 9 -13 6 -3 -3 -12 3 -20 15 -13 19 -12 23 18
54 35 36 49 38 80 10 l20 -18 -25 -26 c-60 -62 -175 -217 -235 -318 -36 -59
-71 -117 -77 -128 -7 -11 -18 -32 -25 -46 -11 -24 -14 -26 -42 -16 -17 5 -33
11 -34 13 -2 1 9 31 24 65 25 56 29 60 35 38 4 -16 1 -28 -9 -37 -14 -10 -12
-12 11 -10 31 3 33 8 11 50 -11 21 -12 34 -5 41 7 7 12 2 17 -17 3 -14 13 -26
21 -26 10 0 13 6 9 15 -4 10 2 19 16 24 24 8 17 15 -25 25 l-27 6 16 33 c9 17
25 43 35 56 11 13 19 28 19 32 0 15 -15 10 -25 -9 -86 -160 -144 -276 -145
-288 0 -7 7 -15 15 -18 13 -5 9 -18 -24 -78 -22 -40 -46 -96 -54 -124 -16 -55
-20 -224 -5 -224 4 0 8 -16 8 -35 0 -38 18 -47 40 -20 10 12 10 18 0 30 -7 8
-9 15 -5 15 4 0 3 6 -2 13 -5 6 -7 26 -3 42 5 29 6 28 23 -22 9 -28 17 -63 17
-77 0 -29 11 -39 34 -30 11 4 14 13 10 26 -9 30 -12 151 -3 173 4 11 17 52 30
90 12 39 39 97 60 131 22 34 39 68 39 77 0 16 -17 32 -35 32 -22 0 -14 35 20
84 19 29 35 56 35 60 0 22 191 288 220 306 6 3 17 -1 26 -9 8 -9 20 -16 26
-16 5 0 36 26 68 58 l58 58 -22 -45 c-11 -24 -30 -55 -41 -67 -11 -12 -38 -55
-59 -95 -22 -41 -51 -92 -65 -114 -14 -23 -46 -81 -71 -130 -25 -50 -48 -92
-51 -95 -7 -6 -31 -77 -34 -100 -1 -8 -4 -22 -7 -30 -13 -36 -23 -118 -17
-140 l7 -25 2 25 c1 14 4 34 6 45 3 11 5 29 5 40 0 10 4 24 8 30 5 5 12 28 16
50 11 62 43 134 120 265 20 36 49 85 63 110 14 25 43 71 64 102 42 63 116 206
148 289 39 99 44 212 14 336 -4 15 -31 77 -60 136 -38 78 -48 107 -36 102 9
-4 24 -8 32 -10 77 -19 115 -41 186 -110 41 -41 66 -78 84 -127 5 -16 14 -28
20 -28 9 0 -15 73 -32 95 -72 94 -151 155 -243 185 -38 13 -74 27 -78 30 -23
19 292 171 406 196 4 1 9 3 12 4 6 3 2 2 100 25 44 10 88 18 97 17 10 0 20 4
24 9 5 9 -52 10 -61 1z m-477 -779 c-4 -20 -18 -26 -37 -14 -18 12 -5 31 20
31 14 0 19 -6 17 -17z m-28 -123 c-6 -11 -15 -20 -20 -20 -5 0 -11 -8 -14 -17
-9 -27 -89 -109 -115 -118 -22 -7 -22 -6 -6 19 10 14 15 33 11 41 -3 10 4 20
22 29 15 8 47 30 72 50 51 40 66 45 50 16z m-350 -247 c0 -7 -4 -13 -10 -13
-5 0 -10 9 -10 20 0 11 -5 20 -11 20 -5 0 -7 5 -3 12 8 13 34 -17 34 -39z
m-169 -495 c-41 -76 -74 -178 -86 -261 -8 -59 -14 -56 -21 9 -6 46 9 115 29
142 14 18 0 27 -18 12 -21 -18 -45 -71 -64 -140 -5 -19 -10 -28 -11 -20 -5 33
1 105 11 144 6 22 11 42 10 43 -2 7 65 131 81 147 15 16 22 17 42 8 20 -9 27
-8 37 4 11 13 13 13 21 0 5 -9 -5 -39 -31 -88z"/>
<path d="M1473 3085 c1 -30 4 -55 7 -56 23 -4 67 -5 78 -1 25 9 11 21 -18 16
-26 -6 -30 -4 -30 15 0 14 6 21 20 21 11 0 20 4 20 10 0 5 -10 9 -21 7 -12 -1
-24 4 -26 11 -3 8 6 12 27 12 18 0 29 4 25 10 -3 6 -24 10 -45 10 l-39 0 2
-55z"/>
<path d="M1619 3108 c0 -18 -2 -43 -5 -55 -8 -45 28 -34 39 12 3 16 6 13 12
-12 5 -23 13 -33 26 -33 22 0 23 4 9 30 -7 14 -7 25 2 39 17 28 -5 51 -48 51
-32 0 -34 -2 -35 -32z m59 0 c-6 -18 -25 -20 -31 -3 -5 10 0 15 14 15 12 0 19
-5 17 -12z"/>
<path d="M1346 3121 c-16 -3 -31 -12 -34 -20 -3 -9 1 -11 16 -7 21 7 32 -14
32 -61 0 -17 6 -23 21 -23 16 0 19 4 15 17 -4 9 -9 32 -12 51 -5 30 -3 34 11
28 10 -4 15 -2 13 6 -5 14 -23 16 -62 9z"/>
<path d="M1799 3123 c-11 -3 -19 -20 -24 -48 -7 -49 -5 -60 10 -60 6 0 15 -4
22 -8 14 -9 45 2 38 13 -3 5 -14 6 -25 3 -16 -4 -20 0 -20 19 0 14 3 28 7 31
5 6 15 59 10 56 -1 -1 -9 -3 -18 -6z"/>
<path d="M1922 3077 c-26 -28 -27 -45 -6 -75 18 -26 67 -30 90 -8 22 23 18 72
-8 90 -31 22 -51 20 -76 -7z m65 -5 c15 -10 12 -33 -9 -63 -15 -23 -17 -23
-34 -7 -15 14 -15 21 -4 47 13 31 25 37 47 23z"/>
<path d="M1199 3083 c0 -5 -2 -21 -4 -38 -2 -16 -4 -34 -5 -40 -4 -20 0 -35
10 -35 6 0 10 7 8 16 -2 9 5 21 15 28 14 9 20 8 28 -6 10 -18 39 -25 39 -10 0
31 -88 113 -91 85z m31 -44 c0 -5 -4 -9 -10 -9 -5 0 -10 7 -10 16 0 8 5 12 10
9 6 -3 10 -10 10 -16z"/>
<path d="M1096 3018 l6 -43 -20 25 c-11 13 -18 28 -16 32 8 12 -11 9 -23 -3
-9 -9 -8 -19 3 -40 8 -16 12 -29 9 -29 -10 0 -35 28 -35 39 0 13 -26 15 -34 3
-9 -14 62 -85 78 -79 9 4 13 13 10 22 -7 18 7 20 24 3 20 -20 30 7 21 55 -4
23 -8 45 -9 50 0 4 -5 7 -10 7 -6 0 -8 -17 -4 -42z"/>
<path d="M2097 3022 c-33 -36 -15 -86 34 -97 38 -9 69 16 69 55 0 53 -68 80
-103 42z m76 -15 c7 -18 -10 -57 -28 -63 -21 -8 -45 14 -38 34 16 44 54 61 66
29z"/>
<path d="M2598 2419 c-24 -14 -22 -33 5 -53 l22 -17 -25 7 c-22 6 -23 5 -12
-9 29 -35 80 10 59 53 -14 28 -26 33 -49 19z m29 -35 c-9 -9 -28 6 -21 18 4 6
10 6 17 -1 6 -6 8 -13 4 -17z"/>
<path d="M2690 2420 c-12 -8 -12 -10 2 -15 13 -5 15 -15 11 -42 -4 -26 -3 -34
5 -29 7 4 12 15 12 25 0 9 5 22 11 28 14 14 5 43 -13 43 -7 0 -20 -4 -28 -10z"/>
<path d="M2790 2398 c-19 -31 -18 -54 2 -42 6 4 14 1 18 -6 13 -22 30 0 26 33
-3 18 -5 35 -5 40 -2 17 -23 5 -41 -25z"/>
<path d="M401 2407 c-27 -27 -3 -92 30 -85 21 4 29 20 29 54 0 26 -5 33 -24
36 -14 3 -30 0 -35 -5z m34 -17 c-3 -5 -11 -10 -16 -10 -6 0 -7 5 -4 10 3 6
11 10 16 10 6 0 7 -4 4 -10z m-1 -41 c-3 -5 -10 -7 -15 -3 -5 3 -7 10 -3 15 3
5 10 7 15 3 5 -3 7 -10 3 -15z"/>
<path d="M506 2405 c-19 -52 12 -98 48 -72 12 9 17 24 14 47 -2 29 -7 36 -29
38 -17 2 -29 -3 -33 -13z m40 -30 c-1 -28 -19 -35 -24 -10 -5 22 6 48 16 41 5
-3 9 -17 8 -31z"/>
<path d="M620 2400 c-12 -23 -6 -40 16 -40 8 0 14 -4 14 -10 0 -5 -7 -7 -15
-4 -8 4 -15 2 -15 -4 0 -16 38 -21 51 -6 16 19 15 64 -2 75 -22 14 -38 10 -49
-11z m40 -9 c0 -6 -4 -13 -10 -16 -5 -3 -10 1 -10 9 0 9 5 16 10 16 6 0 10 -4
10 -9z"/>
<path d="M2519 2413 c-6 -36 -2 -74 7 -77 14 -5 24 37 17 65 -5 18 -22 27 -24
12z"/>
<path d="M321 2401 c-9 -6 -10 -11 -2 -15 6 -4 9 -11 6 -16 -7 -11 5 -40 16
-40 5 0 9 18 9 40 0 41 -5 46 -29 31z"/>
<path d="M930 2240 c0 -10 68 -11 75 0 3 4 -13 8 -35 8 -22 0 -40 -3 -40 -8z"/>
<path d="M566 2171 c-4 -7 -5 -15 -2 -18 9 -9 19 4 14 18 -4 11 -6 11 -12 0z"/>
<path d="M69 2060 c-1 -5 -2 -13 -4 -17 -1 -5 -5 -26 -10 -48 -5 -22 -10 -43
-11 -47 -1 -5 -2 -9 -4 -10 -1 -2 -3 -18 -5 -36 -4 -38 3 -38 10 -1 3 13 13
57 23 97 10 39 15 72 10 72 -4 0 -9 -4 -9 -10z"/>
<path d="M320 1900 c-8 -5 -12 -10 -10 -12 50 -32 64 -32 73 2 6 23 -3 26 -21
8 -10 -10 -15 -10 -20 -1 -5 8 -13 9 -22 3z"/>
<path d="M25 1849 c-4 -6 -5 -12 -2 -15 2 -3 7 2 10 11 7 17 1 20 -8 4z"/>
<path d="M17 1800 c-3 -11 -1 -20 4 -20 5 0 9 9 9 20 0 11 -2 20 -4 20 -2 0
-6 -9 -9 -20z"/>
<path d="M11 1663 c0 -60 2 -103 4 -98 8 21 10 205 3 205 -4 0 -8 -48 -7 -107z"/>
<path d="M3195 1605 c0 -74 3 -135 8 -135 4 0 7 61 7 135 0 74 -3 135 -7 135
-5 0 -8 -61 -8 -135z"/>
<path d="M565 1551 c3 -3 34 -5 70 -6 35 0 62 2 59 5 -3 2 -34 5 -70 6 -35 0
-61 -2 -59 -5z"/>
<path d="M708 1533 c-2 -22 -8 -27 -23 -25 -16 2 -17 1 -5 -7 8 -5 18 -7 22
-5 4 3 8 -1 8 -8 1 -18 16 10 24 45 5 20 3 27 -8 27 -9 0 -16 -12 -18 -27z"/>
<path d="M11 1534 c0 -11 3 -14 6 -6 3 7 2 16 -1 19 -3 4 -6 -2 -5 -13z"/>
<path d="M11 1464 c0 -27 4 -58 9 -69 6 -13 7 3 3 45 -7 79 -13 91 -12 24z"/>
<path d="M600 1500 c11 -7 60 -2 60 6 0 2 -16 3 -35 2 -20 -1 -31 -4 -25 -8z"/>
<path d="M3189 1433 c0 -5 -2 -15 -3 -23 -2 -8 -7 -42 -11 -75 -11 -93 -62
-256 -115 -370 -5 -11 -14 -31 -20 -45 -5 -14 -21 -43 -35 -65 -31 -50 -44
-79 -38 -85 2 -3 9 3 14 12 5 10 8 19 7 20 -2 2 7 17 19 33 25 36 123 253 128
285 3 13 28 98 36 118 5 13 12 45 15 70 5 50 11 87 14 87 1 0 3 10 4 23 2 12
-1 22 -6 22 -4 0 -8 -3 -9 -7z"/>
<path d="M20 1360 c0 -5 5 -10 11 -10 5 0 7 5 4 10 -3 6 -8 10 -11 10 -2 0 -4
-4 -4 -10z"/>
<path d="M405 1360 c-3 -5 -1 -10 4 -10 6 0 11 5 11 10 0 6 -2 10 -4 10 -3 0
-8 -4 -11 -10z"/>
<path d="M30 1310 c0 -5 5 -10 11 -10 5 0 7 5 4 10 -3 6 -8 10 -11 10 -2 0 -4
-4 -4 -10z"/>
<path d="M40 1262 c0 -7 4 -20 9 -30 9 -16 53 -145 57 -167 1 -5 17 -41 35
-80 18 -38 33 -72 34 -75 2 -10 42 -86 70 -135 33 -56 127 -184 171 -231 16
-17 47 -51 69 -75 22 -24 65 -65 95 -89 30 -25 66 -55 80 -68 13 -12 28 -22
31 -22 4 0 31 -16 60 -36 30 -20 94 -56 142 -80 96 -49 317 -127 317 -113 0 5
-26 16 -57 25 -82 23 -230 83 -286 116 -26 15 -50 28 -53 28 -3 0 -46 28 -97
62 -139 93 -324 284 -427 438 -80 121 -205 398 -215 477 -3 24 -35 75 -35 55z"/>
<path d="M2916 1050 c-31 -62 -31 -60 -6 -60 27 0 90 -31 84 -42 -3 -4 2 -8
10 -8 8 0 20 16 27 35 7 19 17 35 22 35 4 0 6 4 2 9 -3 5 -1 12 5 16 17 11 11
23 -16 29 -32 8 -41 2 -25 -17 11 -14 6 -47 -8 -47 -17 0 -19 14 -4 25 14 10
12 13 -17 23 -30 11 -32 10 -27 -7 3 -14 1 -18 -10 -14 -19 7 -12 26 15 38 26
12 24 29 -5 33 -17 3 -27 -8 -47 -48z"/>
<path d="M300 1070 c0 -15 -41 -33 -72 -32 -33 1 -36 -17 -12 -78 17 -43 37
-50 70 -25 17 13 17 15 2 16 -10 1 -24 2 -30 3 -7 0 -13 9 -13 19 0 21 61 52
70 36 9 -14 25 -11 25 6 0 20 -22 65 -32 65 -4 0 -8 -4 -8 -10z"/>
<path d="M2884 942 c-27 -22 -68 -82 -61 -88 4 -5 26 -10 48 -13 4 -1 19 -13
34 -28 l27 -28 17 24 c33 49 40 84 23 114 -9 15 -22 27 -28 27 -7 0 -18 2 -26
5 -7 2 -22 -3 -34 -13z m58 -56 c26 -38 -6 -47 -46 -13 -20 17 -23 26 -15 34
13 13 47 1 61 -21z"/>
<path d="M277 892 c-17 -2 -26 -8 -23 -15 3 -7 9 -20 12 -30 7 -19 31 -17 27
2 -2 6 2 11 7 11 6 0 10 -2 10 -4 0 -2 3 -11 6 -20 4 -11 0 -16 -14 -16 -20 0
-21 -1 -4 -30 17 -30 42 -40 42 -17 0 7 16 29 35 47 22 22 35 42 33 55 -3 17
-10 20 -53 20 -27 0 -63 -1 -78 -3z m73 -32 c0 -5 -2 -10 -4 -10 -3 0 -8 5
-11 10 -3 6 -1 10 4 10 6 0 11 -4 11 -10z"/>
<path d="M2783 798 c-26 -30 -53 -70 -53 -81 0 -5 9 -5 20 -2 11 3 20 2 20 -3
0 -5 9 -12 21 -15 11 -3 23 -15 26 -26 7 -26 15 -26 36 -3 18 20 23 57 7 47
-13 -8 -32 4 -25 16 4 5 15 5 27 -2 18 -10 25 -8 40 11 15 18 16 25 6 31 -7 5
-20 6 -28 4 -8 -2 -22 0 -30 5 -8 5 -11 10 -6 10 13 0 -15 30 -28 30 -7 0 -22
-10 -33 -22z m27 -43 c0 -9 -6 -12 -15 -9 -8 4 -12 10 -9 15 8 14 24 10 24 -6z"/>
<path d="M2927 723 c-101 -158 -292 -348 -467 -465 -56 -37 -200 -110 -279
-141 -25 -9 -42 -20 -38 -23 4 -4 13 -2 20 4 8 7 16 10 19 7 6 -7 236 108 296
147 40 27 73 52 172 134 79 66 207 211 279 317 18 27 31 51 28 54 -3 3 -17
-12 -30 -34z"/>
<path d="M500 727 c0 -16 -34 -45 -66 -57 -21 -8 -23 -13 -14 -30 12 -23 40
-27 40 -6 0 7 7 20 16 27 13 11 12 4 -5 -29 l-21 -42 25 0 c15 0 35 5 45 10
16 8 18 8 14 -5 -6 -15 -17 -19 -41 -16 -19 3 -15 -21 7 -47 18 -21 48 -23 35
-2 -6 10 53 55 72 55 18 0 15 17 -8 43 -16 19 -23 21 -40 11 -27 -14 -35 -5
-21 27 10 21 9 29 -5 49 -20 27 -33 32 -33 12z"/>
<path d="M2663 654 c-3 -9 4 -34 16 -56 11 -22 21 -46 21 -53 0 -25 21 -27 42
-5 l20 21 -21 6 c-17 4 -19 8 -10 19 13 16 33 19 24 5 -3 -5 0 -13 6 -17 13
-8 61 47 51 58 -4 4 -18 9 -32 11 -14 3 -38 10 -53 16 -39 15 -57 14 -64 -5z"/>
<path d="M2568 562 c-35 -34 -36 -71 -3 -106 18 -20 31 -25 51 -22 30 6 93 68
75 74 -6 2 -11 12 -11 23 0 26 -24 24 -50 -3 l-21 -22 21 -8 c24 -9 26 -24 4
-32 -19 -7 -66 41 -62 63 2 10 14 16 30 16 35 1 44 11 28 30 -17 21 -31 18
-62 -13z"/>
<path d="M640 571 c0 -6 0 -13 0 -16 0 -3 -13 -20 -30 -38 -34 -37 -36 -44
-14 -75 31 -44 50 -46 92 -7 22 19 45 35 51 35 17 0 13 14 -9 33 -20 16 -21
16 -27 0 -12 -32 -50 -66 -67 -60 -9 4 -16 11 -16 16 0 15 50 62 60 56 15 -9
22 15 8 28 -31 29 -48 39 -48 28z"/>
<path d="M749 429 c-9 -18 -7 -27 10 -50 12 -16 19 -35 15 -41 -9 -15 -34 19
-34 46 0 20 0 20 -21 -1 l-21 -21 20 -20 c30 -30 56 -42 80 -35 32 8 35 36 10
78 -15 26 -17 36 -8 33 8 -2 17 -15 20 -28 7 -32 27 -36 35 -9 6 18 1 28 -19
46 -34 29 -72 30 -87 2z"/>
<path d="M2406 422 c-6 -18 -3 -36 12 -87 5 -16 7 -36 5 -42 -6 -18 18 -16 42
3 16 12 17 16 6 23 -7 5 -10 14 -6 20 5 9 10 8 19 -4 11 -15 14 -14 39 5 29
23 35 40 15 40 -7 0 -33 14 -58 30 -52 34 -66 37 -74 12z m54 -46 c0 -3 -4 -8
-10 -11 -5 -3 -10 -1 -10 4 0 6 5 11 10 11 6 0 10 -2 10 -4z"/>
<path d="M893 363 c1 -20 -31 -73 -44 -73 -20 0 -7 -27 20 -43 l28 -17 7 39
c4 25 15 47 31 59 l26 20 -23 16 c-29 21 -47 20 -45 -1z"/>
<path d="M2273 338 c-34 -21 -43 -38 -19 -38 12 0 41 -51 41 -75 1 -16 8 -18
35 -10 32 10 75 43 76 58 0 17 -16 37 -31 37 -7 0 -10 -9 -8 -24 3 -15 -1 -25
-11 -29 -19 -7 -55 57 -48 86 4 20 5 20 -35 -5z"/>
<path d="M967 306 c-33 -33 -25 -99 14 -111 10 -4 19 -12 19 -20 0 -7 7 -16
16 -19 24 -9 26 -8 20 12 -5 13 1 22 19 30 24 11 31 30 26 77 -5 50 -76 69
-114 31z m77 -14 c3 -5 3 -18 0 -29 -5 -17 -9 -19 -29 -10 -18 9 -21 14 -11
29 11 19 31 24 40 10z m-44 -62 c0 -5 -5 -10 -11 -10 -5 0 -7 5 -4 10 3 6 8
10 11 10 2 0 4 -4 4 -10z"/>
<path d="M2115 269 c-61 -25 -59 -23 -42 -40 14 -15 32 -66 28 -86 -3 -18 16
-25 36 -14 10 6 35 17 56 25 35 14 36 16 25 40 -14 33 -24 33 -32 1 -7 -26
-30 -34 -41 -14 -4 6 -1 9 7 7 7 -2 15 2 16 7 3 17 -9 45 -19 45 -6 0 -7 -4
-4 -10 3 -5 2 -10 -3 -10 -6 0 -12 6 -15 14 -8 20 24 26 45 8 16 -13 18 -13
24 2 6 15 -11 47 -25 45 -3 0 -28 -9 -56 -20z"/>
<path d="M1129 278 c-3 -14 -12 -79 -13 -103 -1 -23 5 -32 28 -43 39 -19 70
-2 86 49 8 23 20 39 29 39 13 1 12 3 -3 15 -31 23 -51 19 -52 -12 -3 -50 -11
-68 -30 -68 -15 0 -19 6 -17 29 1 16 10 37 19 47 19 21 19 21 -13 38 -21 11
-32 14 -34 9z"/>
<path d="M1281 213 c4 -41 -2 -73 -16 -87 -22 -21 -20 -24 28 -36 23 -6 50
-13 60 -16 11 -4 20 2 26 18 10 27 4 43 -12 29 -22 -17 -50 -17 -52 2 -2 9 1
17 6 17 5 0 9 -4 9 -10 0 -15 17 -12 24 5 9 24 -4 48 -19 35 -11 -9 -12 -7 -8
9 4 16 9 18 23 11 10 -5 21 -17 24 -26 5 -12 10 -14 17 -7 21 21 4 46 -41 59
-60 18 -72 17 -69 -3z"/>
<path d="M1988 225 c-2 -2 -18 -5 -36 -8 -41 -7 -48 -13 -34 -29 16 -21 26
-88 13 -88 -7 0 -9 -5 -6 -10 16 -26 129 14 140 50 9 27 -23 77 -51 83 -13 2
-25 3 -26 2z m20 -37 c16 -16 15 -53 -2 -67 -17 -14 -21 -8 -30 42 -7 39 7 50
32 25z"/>
<path d="M2119 96 c-8 -8 -204 -58 -227 -58 -12 0 -25 -5 -28 -10 -3 -5 11 -7
33 -4 21 2 38 5 38 6 0 1 7 3 15 5 77 17 172 43 178 50 3 3 3 7 0 10 -2 3 -7
3 -9 1z"/>
<path d="M1225 60 c-3 -5 11 -12 32 -17 49 -9 53 -10 56 -12 1 -1 17 -4 35 -7
21 -2 31 0 27 6 -3 6 -16 10 -29 10 -13 0 -44 6 -69 14 -26 8 -49 10 -52 6z"/>
<path d="M1390 20 c0 -5 11 -9 24 -8 14 1 22 6 20 10 -7 12 -44 10 -44 -2z"/>
<path d="M1815 20 c-3 -5 1 -10 9 -10 8 0 18 5 21 10 3 6 -1 10 -9 10 -8 0
-18 -4 -21 -10z"/>
</g>
</svg>
